<svg width="23" height="23" viewBox="0 0 23 23" fill="none" xmlns="http://www.w3.org/2000/svg">
<path fill-rule="evenodd" clip-rule="evenodd" d="M11.4363 20.0747C9.1168 20.0613 7.05577 19.3133 5.21536 17.9522C4.55984 17.4668 3.95699 16.9171 3.41628 16.3114L3.36114 16.2474C3.35425 16.1632 3.35425 16.0789 3.35425 15.998C3.42663 16.0082 3.51624 16.0014 3.57482 16.0351C4.06767 16.335 4.53985 16.6652 5.04648 16.9448C6.49882 17.7451 8.08847 18.2795 9.73717 18.5215C10.6001 18.651 11.4745 18.6916 12.3462 18.6429C14.0108 18.5485 15.5996 18.1442 17.1161 17.4569C17.3539 17.3491 17.5883 17.2312 17.8261 17.1133C17.9398 17.056 18.0536 17.0324 18.1501 17.1335C18.2535 17.2379 18.2466 17.366 18.1776 17.4838C18.1321 17.5503 18.0777 17.6103 18.0157 17.6624C16.6612 18.8349 15.0793 19.5559 13.3146 19.8928C12.7046 20.0073 12.0774 20.0478 11.457 20.1253L11.4363 20.0747Z" fill="#FF9900"/>
<path fill-rule="evenodd" clip-rule="evenodd" d="M17.9706 16.4114C17.6363 16.4417 17.2641 16.4787 16.8919 16.5124C16.8106 16.5214 16.7287 16.5236 16.6471 16.5192C16.554 16.5124 16.5369 16.4585 16.5885 16.3911L16.7092 16.2934C17.1021 16.034 17.5467 15.9228 18.0085 15.8622C18.443 15.8001 18.8858 15.823 19.3113 15.9296C19.6008 16.0037 19.6628 16.0374 19.6421 16.3675C19.5835 17.2334 19.3009 18.0218 18.6564 18.6552L18.553 18.7462L18.3773 18.7765L18.3842 18.6182C18.5358 18.1633 18.6978 17.7084 18.8494 17.2536C18.8768 17.16 18.8952 17.0642 18.9046 16.9673C18.9425 16.6606 18.815 16.5057 18.4841 16.4585C18.3256 16.4349 18.167 16.4282 17.9706 16.4114Z" fill="#FF9900"/>
<path fill-rule="evenodd" clip-rule="evenodd" d="M17.0679 13.6158C16.9773 13.4755 16.8783 13.3405 16.7715 13.2115C16.3407 12.6623 16.1442 12.0491 16.1511 11.3551C16.1649 10.1085 16.158 8.8619 16.1546 7.61869C16.1511 7.14029 16.1477 6.65511 16.1132 6.17671C16.0132 4.75493 15.2654 3.78124 13.9075 3.29271C12.2669 2.69974 10.6126 2.75028 8.9927 3.36684C7.62103 3.89242 6.7801 4.88632 6.48713 6.30809C6.42509 6.61808 6.55263 6.8034 6.88348 6.84043C7.54519 6.91455 8.2138 6.97854 8.87557 7.05605C9.21672 7.09648 9.36495 6.99206 9.46834 6.67195C9.54073 6.44287 9.62341 6.20701 9.75785 6.01502C10.1542 5.4456 10.9917 5.17607 11.7327 5.34116C12.2221 5.44897 12.5978 5.69492 12.7736 6.16998C12.9734 6.70565 12.8941 7.26495 12.9079 7.82086C12.4323 7.86801 11.9774 7.91183 11.5225 7.96237C10.6953 8.05333 9.87158 8.16448 9.07544 8.4138C8.14486 8.7036 7.34187 9.182 6.78694 9.98384C6.03564 11.0687 5.92881 12.2647 6.24586 13.508C6.50088 14.5086 7.13159 15.2128 8.11732 15.5935C8.67219 15.8058 9.25122 15.8495 9.84398 15.8395C10.9331 15.8192 11.905 15.4992 12.7253 14.7849C12.939 14.5962 13.1492 14.4075 13.3767 14.2054C13.4387 14.2963 13.4939 14.3705 13.5421 14.4547C13.8149 14.8772 14.1506 15.2576 14.5381 15.5834C14.838 15.8293 15.0447 15.8327 15.3412 15.58L16.9645 14.2054C17.1747 14.0302 17.2126 13.8516 17.0679 13.6158ZM12.6943 12.0592C12.4978 12.5882 12.1945 13.0431 11.6844 13.3361C11.0985 13.6764 10.3713 13.6192 9.93708 13.2048C9.63376 12.915 9.50968 12.541 9.47869 12.1368C9.42354 11.3719 9.59932 10.688 10.2783 10.2298C10.5229 10.0647 10.8125 9.94681 11.0985 9.85245C11.6775 9.66379 12.2807 9.63683 12.9114 9.64022C12.8907 10.4656 12.9838 11.2776 12.6943 12.0592Z" fill="black"/>
</svg>
