<svg width="16" height="16" viewBox="0 0 16 16" fill="none" xmlns="http://www.w3.org/2000/svg">
<path d="M8.68392 2.696V1.34973C11.8282 1.66348 14.3358 4.1716 14.6495 7.316H13.3039C13.0014 4.90906 11.0914 2.99786 8.68392 2.696ZM7.33326 3.99974V4.78912C6.55888 5.06537 6.00014 5.79849 6.00014 6.66592C6.00014 7.76904 6.89702 8.66592 8.00014 8.66592C8.36826 8.66592 8.66702 8.96529 8.66702 9.3328C8.66702 9.7003 8.36827 9.99968 8.00014 9.99968C7.632 9.99968 7.33326 9.7003 7.33326 9.3328H6.00014C6.00014 10.2009 6.55888 10.9341 7.33326 11.2096V11.9996H8.66638V11.2102C9.44075 10.934 9.9995 10.2008 9.9995 9.33342C9.9995 8.2303 9.10262 7.33342 7.9995 7.33342C7.63138 7.33342 7.33262 7.03405 7.33262 6.66654C7.33262 6.29904 7.63136 5.99966 7.9995 5.99966C8.36763 5.99966 8.66638 6.29904 8.66638 6.66654H9.9995C9.9995 5.79842 9.44075 5.06521 8.66638 4.78974L8.667 3.99974H7.33326ZM13.3038 8.64961C12.9738 11.2765 10.7313 13.3165 8.01686 13.3165C5.07619 13.3165 2.68379 10.924 2.68379 7.98348C2.68379 5.26908 4.72379 3.02601 7.35072 2.69654L7.3501 1.34961C3.98583 1.68524 1.3501 4.53148 1.3501 7.98268C1.3501 11.6589 4.34063 14.6496 8.01703 14.6496C11.4676 14.6496 14.3138 12.0139 14.6501 8.64961H13.3038Z" fill="black"/>
</svg>
