<svg width="16" height="16" viewBox="0 0 16 16" fill="none" xmlns="http://www.w3.org/2000/svg">
<path d="M2.3999 4.66634V2.66634C2.3999 1.93129 2.99788 1.33301 3.73324 1.33301H5.73324C6.10141 1.33301 6.3999 1.63118 6.3999 1.99967C6.3999 2.36817 6.10141 2.66634 5.73324 2.66634H3.73324V4.66634C3.73324 5.03483 3.43474 5.33301 3.06657 5.33301C2.6984 5.33301 2.3999 5.03483 2.3999 4.66634ZM14.3999 1.33301H12.3999C12.0317 1.33301 11.7332 1.63118 11.7332 1.99967C11.7332 2.36817 12.0317 2.66634 12.3999 2.66634H14.3999V4.66634C14.3999 5.03483 14.6984 5.33301 15.0666 5.33301C15.4347 5.33301 15.7332 5.03483 15.7332 4.66634V2.66634C15.7332 1.93129 15.1353 1.33301 14.3999 1.33301ZM15.0666 10.6663C14.6984 10.6663 14.3999 10.9645 14.3999 11.333V13.333H12.3999C12.0317 13.333 11.7332 13.6312 11.7332 13.9997C11.7332 14.3682 12.0317 14.6663 12.3999 14.6663H14.3999C15.1353 14.6663 15.7332 14.0681 15.7332 13.333V11.333C15.7332 10.9645 15.4347 10.6663 15.0666 10.6663ZM5.73324 13.333H3.73324V11.333C3.73324 10.9645 3.43474 10.6663 3.06657 10.6663C2.6984 10.6663 2.3999 10.9645 2.3999 11.333V13.333C2.3999 14.0681 2.99788 14.6663 3.73324 14.6663H5.73324C6.10141 14.6663 6.3999 14.3682 6.3999 13.9997C6.3999 13.6312 6.10141 13.333 5.73324 13.333ZM11.7332 11.9997H6.3999C5.66454 11.9997 5.06657 11.4014 5.06657 10.6663V5.33301C5.06657 4.59795 5.66454 3.99967 6.3999 3.99967H11.7332C12.4686 3.99967 13.0666 4.59795 13.0666 5.33301V10.6663C13.0666 11.4014 12.4686 11.9997 11.7332 11.9997ZM6.3999 10.6663H11.7342L11.7332 5.33301H6.39985L6.3999 10.6663Z" fill="black"/>
</svg>
