<svg width="17" height="17" viewBox="0 0 17 17" fill="none" xmlns="http://www.w3.org/2000/svg">
<path d="M7.10714 12.5266C7.07668 12.6477 6.31496 15.5 2.12511 15.5C1.95935 15.5 1.80038 15.4341 1.68317 15.3169C1.56596 15.1997 1.50011 15.0408 1.50011 14.875C1.50011 10.6852 4.35246 9.92343 4.47355 9.89296C4.63444 9.85277 4.80471 9.87813 4.9469 9.96347C5.08909 10.0488 5.19156 10.1872 5.23175 10.348C5.27195 10.5089 5.24659 10.6792 5.16124 10.8214C5.0759 10.9636 4.93757 11.066 4.77668 11.1062C4.70636 11.1258 3.02511 11.6172 2.7798 14.2203C5.38293 13.975 5.87511 12.2969 5.89543 12.2187C5.93687 12.0581 6.04044 11.9204 6.18336 11.8361C6.32629 11.7518 6.49685 11.7277 6.65754 11.7691C6.81822 11.8106 6.95586 11.9142 7.04018 12.0571C7.1245 12.2 7.14858 12.3706 7.10714 12.5312V12.5266ZM14.3728 7.26093L14.0001 7.63359V12.1906C14.001 12.3554 13.9692 12.5187 13.9064 12.6711C13.8437 12.8235 13.7512 12.9618 13.6345 13.0781L10.9532 15.7578C10.8376 15.8743 10.7001 15.9667 10.5486 16.0297C10.397 16.0927 10.2345 16.1251 10.0704 16.125C9.93499 16.125 9.80045 16.1031 9.67199 16.0602C9.45144 15.9872 9.25568 15.854 9.10686 15.6756C8.95803 15.4973 8.86206 15.2808 8.8298 15.0508L8.41027 12.0437L4.95636 8.58984L1.9509 8.17031C1.72054 8.138 1.50377 8.04206 1.32496 7.89327C1.14616 7.74448 1.01242 7.54875 0.938789 7.3281C0.865157 7.10745 0.854555 6.87063 0.908175 6.64428C0.961795 6.41794 1.07751 6.21104 1.2423 6.04687L3.92199 3.36562C4.0383 3.24889 4.17666 3.15645 4.32902 3.09368C4.48138 3.03091 4.64471 2.99907 4.80949 3H9.36652L9.73918 2.62734C11.8236 0.543746 14.3353 0.453902 15.3181 0.512496C15.6228 0.531015 15.9103 0.660426 16.1261 0.876311C16.342 1.0922 16.4714 1.37963 16.49 1.68437C16.547 2.66484 16.4571 5.17656 14.3735 7.26093H14.3728ZM2.12511 6.93281L5.02746 7.3375L8.11652 4.25H4.80949L2.12511 6.93281ZM6.13449 8L9.00011 10.8656L13.4884 6.37734C14.0933 5.77656 14.5625 5.05326 14.8646 4.25606C15.1667 3.45886 15.2947 2.60623 15.24 1.75546C14.3896 1.70273 13.5379 1.83205 12.7415 2.13478C11.9451 2.4375 11.2226 2.90667 10.622 3.51093L6.13449 8ZM12.7501 8.88359L9.66183 11.9719L10.0681 14.875L12.7501 12.1906V8.88359Z" fill="#292929"/>
</svg>
