<svg width="14" height="14" viewBox="0 0 14 14" fill="none" xmlns="http://www.w3.org/2000/svg">
<path d="M11.0836 2.33306H10.5V1.74954C10.5 1.42688 10.2392 1.16602 9.91653 1.16602C9.59386 1.16602 9.33301 1.42687 9.33301 1.74954V2.33306H7.58301L7.58356 1.74954C7.58356 1.42688 7.32215 1.16602 7.00004 1.16602C6.67792 1.16602 6.41652 1.42687 6.41652 1.74954V2.33306H4.66652V1.74954C4.66652 1.42688 4.40511 1.16602 4.083 1.16602C3.76144 1.16602 3.50002 1.42687 3.50002 1.74954V2.33306H2.9165C1.95181 2.33306 1.1665 3.11783 1.1665 4.08306V11.0831C1.1665 12.0483 1.95127 12.8331 2.9165 12.8331H11.0829C12.0482 12.8331 12.8329 12.0483 12.8329 11.0831L12.8335 4.08306C12.8335 3.11783 12.0482 2.33306 11.0835 2.33306H11.0836ZM11.6665 11.0831C11.6665 11.4052 11.4051 11.6666 11.083 11.6666L2.91659 11.666C2.59503 11.666 2.33307 11.4046 2.33307 11.0825V6.99894H11.6666L11.6665 11.0831ZM11.6665 5.83306H2.33356V4.08306C2.33356 3.76095 2.59551 3.49954 2.91708 3.49954H3.5006V4.08306C3.5006 4.40571 3.762 4.66658 4.08412 4.66658C4.40623 4.66658 4.66764 4.40572 4.66764 4.08306L4.66654 3.49954H6.41654V4.08306C6.41654 4.40571 6.67795 4.66658 7.00006 4.66658C7.32218 4.66658 7.58358 4.40572 7.58358 4.08306V3.49954H9.33358V4.08306C9.33358 4.40571 9.59444 4.66658 9.9171 4.66658C10.2398 4.66658 10.5006 4.40572 10.5006 4.08306L10.5001 3.49954H11.0836C11.4057 3.49954 11.6671 3.76094 11.6671 4.08306L11.6665 5.83306Z" fill="black"/>
</svg>
