<svg width="35" height="35" viewBox="0 0 35 35" fill="none" xmlns="http://www.w3.org/2000/svg">
<rect x="0.25" y="0.25" width="34.5" height="34.5" rx="16.75" fill="white" stroke="#DADADA" stroke-width="0.5"/>
<g clip-path="url(#clip0_10990_3034)">
<path fill-rule="evenodd" clip-rule="evenodd" d="M17.5 5.00002V7.15522C15.6828 7.15152 13.8974 7.63209 12.3276 8.54746L11.25 6.67677V6.67246C13.1491 5.57295 15.3055 4.99593 17.5 5.00002Z" fill="#2980BA"/>
<path fill-rule="evenodd" clip-rule="evenodd" d="M12.327 8.54687C10.7588 9.45557 9.45557 10.7588 8.54687 12.327L6.67619 11.2495H6.67188C7.77299 9.35094 9.35094 7.77299 11.2495 6.67188V6.67619L12.327 8.54687Z" fill="#285680"/>
<path fill-rule="evenodd" clip-rule="evenodd" d="M8.54746 12.3276C7.63209 13.8974 7.15152 15.6828 7.15522 17.5H5.00002C4.99593 15.3055 5.57295 13.1491 6.67246 11.25H6.67677L8.54746 12.3276Z" fill="#3D324C"/>
<path fill-rule="evenodd" clip-rule="evenodd" d="M8.54746 22.6724L6.67677 23.75H6.67246C5.57295 21.8509 4.99593 19.6945 5.00002 17.5H7.15522C7.15152 19.3172 7.63209 21.1026 8.54746 22.6724Z" fill="#802D40"/>
<path fill-rule="evenodd" clip-rule="evenodd" d="M12.327 26.452L11.2495 28.3227V28.327C9.35094 27.2259 7.77299 25.648 6.67188 23.7495H6.67619L8.54687 22.6719C9.45557 24.2401 10.7588 25.5434 12.327 26.452Z" fill="#C03A2B"/>
<path fill-rule="evenodd" clip-rule="evenodd" d="M17.5 27.8454V30.0006C15.3055 30.0047 13.1491 29.4276 11.25 28.3281V28.3238L12.3276 26.4531C13.8974 27.3685 15.6828 27.8491 17.5 27.8454Z" fill="#D25627"/>
<path fill-rule="evenodd" clip-rule="evenodd" d="M23.75 28.3238V28.3281C21.8509 29.4276 19.6945 30.0047 17.5 30.0006V27.8454C19.3172 27.8491 21.1026 27.3685 22.6724 26.4531L23.75 28.3238Z" fill="#E57E25"/>
<path fill-rule="evenodd" clip-rule="evenodd" d="M28.327 23.7495C27.2259 25.648 25.648 27.2259 23.7495 28.327V28.3227L22.6719 26.452C24.2401 25.5434 25.5434 24.2401 26.452 22.6719L28.3227 23.7495H28.327Z" fill="#F3D55B"/>
<path fill-rule="evenodd" clip-rule="evenodd" d="M30.0006 17.5C30.0047 19.6945 29.4276 21.8509 28.3281 23.75H28.3238L26.4531 22.6724C27.3685 21.1026 27.8491 19.3172 27.8454 17.5H30.0006Z" fill="#F0C419"/>
<path fill-rule="evenodd" clip-rule="evenodd" d="M30.0006 17.5H27.8454C27.8491 15.6828 27.3685 13.8974 26.4531 12.3276L28.3238 11.25H28.3281C29.4276 13.1491 30.0047 15.3055 30.0006 17.5Z" fill="#24AE5F"/>
<path fill-rule="evenodd" clip-rule="evenodd" d="M28.327 11.2495H28.3227L26.452 12.327C25.5434 10.7588 24.2401 9.45557 22.6719 8.54687L23.7495 6.67619V6.67188C25.648 7.77299 27.2259 9.35094 28.327 11.2495Z" fill="#33907C"/>
<path fill-rule="evenodd" clip-rule="evenodd" d="M23.75 6.67246V6.67677L22.6724 8.54746C21.1026 7.63209 19.3172 7.15152 17.5 7.15522V5.00002C19.6945 4.99593 21.8509 5.57295 23.75 6.67246Z" fill="#3B97D3"/>
<path fill-rule="evenodd" clip-rule="evenodd" d="M17.5005 7.15432V9.30951C16.0625 9.30806 14.6497 9.68728 13.4057 10.4086L12.3281 8.54658C13.898 7.63121 15.6833 7.15065 17.5005 7.15432Z" fill="#3B97D3"/>
<path fill-rule="evenodd" clip-rule="evenodd" d="M13.4046 10.4089C12.1623 11.1297 11.1297 12.1623 10.4089 13.4046L8.54688 12.327C9.45557 10.7588 10.7588 9.45557 12.327 8.54688L13.4046 10.4089Z" fill="#4482C3"/>
<path fill-rule="evenodd" clip-rule="evenodd" d="M10.4086 21.5948L8.54658 22.6724C7.63121 21.1026 7.15065 19.3172 7.15432 17.5H9.30951C9.30806 18.938 9.68728 20.3508 10.4086 21.5948Z" fill="#C03A2B"/>
<path fill-rule="evenodd" clip-rule="evenodd" d="M17.5005 25.689V27.8442C15.6833 27.8478 13.898 27.3673 12.3281 26.4519L13.4057 24.5898C14.6497 25.3112 16.0625 25.6904 17.5005 25.689Z" fill="#E57E25"/>
<path fill-rule="evenodd" clip-rule="evenodd" d="M26.4535 22.6733C25.5448 24.2416 24.2416 25.5448 22.6733 26.4535L21.5957 24.5914C22.838 23.8706 23.8706 22.838 24.5914 21.5957L26.4535 22.6733Z" fill="#F9EAB0"/>
<path fill-rule="evenodd" clip-rule="evenodd" d="M27.8442 17.5005H25.689C25.6904 16.0625 25.3112 14.6497 24.5898 13.4057L26.4519 12.3281C27.3673 13.898 27.8478 15.6833 27.8442 17.5005Z" fill="#4FBA6F"/>
<path fill-rule="evenodd" clip-rule="evenodd" d="M26.4515 12.327L24.5894 13.4046C23.8687 12.1623 22.8361 11.1297 21.5938 10.4089L22.6713 8.54688C24.2396 9.45557 25.5428 10.7588 26.4515 12.327Z" fill="#14A085"/>
<path fill-rule="evenodd" clip-rule="evenodd" d="M22.6724 8.54658L21.5948 10.4086C20.3508 9.68728 18.938 9.30806 17.5 9.30951V7.15432C19.3172 7.15065 21.1026 7.63121 22.6724 8.54658Z" fill="#84B5CB"/>
<path fill-rule="evenodd" clip-rule="evenodd" d="M21.5948 10.4097L20.5172 12.2761C19.6012 11.743 18.5598 11.4633 17.5 11.4657V9.31055C18.938 9.3091 20.3508 9.68833 21.5948 10.4097Z" fill="#9FC9D3"/>
<path fill-rule="evenodd" clip-rule="evenodd" d="M24.5909 13.4058L22.7245 14.4834C22.1932 13.5685 21.4325 12.8079 20.5176 12.2765L21.5952 10.4102C22.8375 11.1309 23.8701 12.1635 24.5909 13.4058Z" fill="#26B99A"/>
<path fill-rule="evenodd" clip-rule="evenodd" d="M25.6901 17.4991H23.535C23.5374 16.4393 23.2577 15.3979 22.7246 14.4819L24.591 13.4043C25.3124 14.6483 25.6916 16.0611 25.6901 17.4991Z" fill="#71C285"/>
<path fill-rule="evenodd" clip-rule="evenodd" d="M24.5909 21.5952C23.8701 22.8375 22.8375 23.8701 21.5952 24.5909L20.5176 22.7245C21.4325 22.1932 22.1932 21.4325 22.7245 20.5176L24.5909 21.5952Z" fill="#F5EFCA"/>
<path fill-rule="evenodd" clip-rule="evenodd" d="M17.5011 23.535V25.6901C16.063 25.6916 14.6503 25.3124 13.4062 24.591L14.4838 22.7246C15.3999 23.2577 16.4412 23.5374 17.5011 23.535Z" fill="#F29C1F"/>
<path fill-rule="evenodd" clip-rule="evenodd" d="M12.2761 20.5172L10.4097 21.5948C9.68833 20.3508 9.3091 18.938 9.31055 17.5H11.4657C11.4633 18.5598 11.743 19.6012 12.2761 20.5172Z" fill="#E64C3C"/>
<path fill-rule="evenodd" clip-rule="evenodd" d="M14.4834 12.2765C13.5685 12.8079 12.8079 13.5685 12.2765 14.4834L10.4102 13.4058C11.1309 12.1635 12.1635 11.1309 13.4058 10.4102L14.4834 12.2765Z" fill="#91BAE2"/>
<path fill-rule="evenodd" clip-rule="evenodd" d="M17.4991 9.31055V11.4657C16.4393 11.4633 15.3979 11.743 14.4819 12.2761L13.4043 10.4097C14.6483 9.68833 16.0611 9.3091 17.4991 9.31055Z" fill="#84B5CB"/>
<path fill-rule="evenodd" clip-rule="evenodd" d="M10.4106 13.4057C9.68924 14.6497 9.31001 16.0625 9.31146 17.5005H7.15627C7.1526 15.6833 7.63316 13.898 8.54853 12.3281L10.4106 13.4057Z" fill="#5D4C72"/>
<path fill-rule="evenodd" clip-rule="evenodd" d="M12.2761 14.4819C11.743 15.3979 11.4633 16.4393 11.4657 17.4991H9.31055C9.3091 16.0611 9.68833 14.6483 10.4097 13.4043L12.2761 14.4819Z" fill="#7D6599"/>
<path fill-rule="evenodd" clip-rule="evenodd" d="M13.4046 24.5914L12.327 26.4535C10.7588 25.5448 9.45557 24.2416 8.54688 22.6733L10.4089 21.5957C11.1297 22.838 12.1623 23.8706 13.4046 24.5914Z" fill="#E64C3C"/>
<path fill-rule="evenodd" clip-rule="evenodd" d="M14.4834 22.7245L13.4058 24.5909C12.1635 23.8701 11.1309 22.8375 10.4102 21.5952L12.2765 20.5176C12.8079 21.4325 13.5685 22.1932 14.4834 22.7245Z" fill="#FB7B76"/>
<path fill-rule="evenodd" clip-rule="evenodd" d="M22.6724 26.4519C21.1026 27.3673 19.3172 27.8478 17.5 27.8442V25.689C18.938 25.6904 20.3508 25.3112 21.5948 24.5898L22.6724 26.4519Z" fill="#F29C1F"/>
<path fill-rule="evenodd" clip-rule="evenodd" d="M21.5948 24.591C20.3508 25.3124 18.938 25.6916 17.5 25.6901V23.535C18.5598 23.5374 19.6012 23.2577 20.5172 22.7246L21.5948 24.591Z" fill="#FAC176"/>
<path fill-rule="evenodd" clip-rule="evenodd" d="M27.8442 17.5C27.8478 19.3172 27.3673 21.1026 26.4519 22.6724L24.5898 21.5948C25.3112 20.3508 25.6904 18.938 25.689 17.5H27.8442Z" fill="#F3D55B"/>
<path fill-rule="evenodd" clip-rule="evenodd" d="M25.6901 17.5C25.6916 18.938 25.3124 20.3508 24.591 21.5948L22.7246 20.5172C23.2577 19.6012 23.5374 18.5598 23.535 17.5H25.6901Z" fill="#F9EAB0"/>
</g>
<defs>
<clipPath id="clip0_10990_3034">
<rect width="25" height="25" fill="white" transform="translate(5 5)"/>
</clipPath>
</defs>
</svg>
