<svg width="20" height="20" viewBox="0 0 20 20" fill="none" xmlns="http://www.w3.org/2000/svg">
<path d="M14.9999 12.5C14.2499 12.5 13.5836 12.8388 13.1249 13.3638L7.4431 10.5224C7.47936 10.3531 7.5 10.1793 7.5 9.99997C7.5 9.8206 7.47936 9.64618 7.4431 9.47743L13.1249 6.63627C13.5836 7.16127 14.2499 7.5 14.9999 7.5C16.3787 7.5 17.4999 6.37878 17.4999 5C17.4999 3.62122 16.3787 2.5 14.9999 2.5C13.6211 2.5 12.4999 3.62122 12.4999 5C12.4999 5.17937 12.5206 5.35378 12.5568 5.52312L6.875 8.36378C6.41628 7.83878 5.75 7.50005 5 7.50005C3.62122 7.50005 2.5 8.62127 2.5 10.0001C2.5 11.3788 3.62122 12.5001 5 12.5001C5.75 12.5001 6.41628 12.1613 6.875 11.6363L12.5568 14.477C12.5206 14.6463 12.4999 14.8207 12.4999 15.0001C12.4999 16.3789 13.6211 17.5001 14.9999 17.5001C16.3787 17.5001 17.4999 16.3789 17.4999 15.0001C17.4999 13.6213 16.3787 12.5001 14.9999 12.5001V12.5ZM14.9999 3.75003C15.6893 3.75003 16.2499 4.31065 16.2499 5.00003C16.2499 5.68942 15.6893 6.25003 14.9999 6.25003C14.3105 6.25003 13.7499 5.68942 13.7499 5.00003C13.7499 4.31065 14.3105 3.75003 14.9999 3.75003ZM4.99993 11.25C4.31055 11.25 3.74993 10.6894 3.74993 10C3.74993 9.31065 4.31055 8.75003 4.99993 8.75003C5.68932 8.75003 6.24993 9.31065 6.24993 10C6.24993 10.6894 5.68932 11.25 4.99993 11.25ZM14.9999 16.25C14.3105 16.25 13.7499 15.6894 13.7499 15C13.7499 14.3107 14.3105 13.75 14.9999 13.75C15.6893 13.75 16.2499 14.3107 16.2499 15C16.2499 15.6894 15.6893 16.25 14.9999 16.25Z" fill="white"/>
</svg>
