<svg width="16" height="16" viewBox="0 0 16 16" fill="none" xmlns="http://www.w3.org/2000/svg">
<path d="M11.9999 1.33301H3.99994C2.52927 1.33301 1.33301 2.52926 1.33301 3.99994V11.9999C1.33301 13.4706 2.52926 14.6669 3.99994 14.6669H11.9999C13.4706 14.6669 14.6669 13.4706 14.6669 11.9999V3.99994C14.6669 2.52927 13.4706 1.33301 11.9999 1.33301ZM13.3331 11.9999C13.3331 12.7349 12.7349 13.3331 11.9999 13.3331H3.99994C3.26494 13.3331 2.66682 12.7349 2.66682 11.9999V3.99994C2.66682 3.26494 3.26494 2.66682 3.99994 2.66682H11.9999C12.7349 2.66682 13.3331 3.26494 13.3331 3.99994V11.9999ZM4.66679 7.99994H5.99991V10.6669H4.66679V7.99994ZM7.33306 5.33301H8.66618V10.6661H7.33306V5.33301ZM10 6.66674H11.3331V10.6667H10V6.66674Z" fill="black"/>
</svg>
