<svg width="12" height="15" viewBox="0 0 12 15" fill="none" xmlns="http://www.w3.org/2000/svg">
<path d="M11.0631 2.25H8.62533V1.31274C8.62111 0.58923 8.03611 0.00423 7.31259 0H4.31304C3.58953 0.00421875 3.00453 0.589215 3.0003 1.31274V2.25H0.5625C0.25242 2.25 0 2.50172 0 2.8125C0 3.12329 0.25242 3.375 0.5625 3.375H0.75024V13.3122C0.754459 14.0357 1.33946 14.6207 2.06298 14.6249H9.56253C10.286 14.6207 10.871 14.0357 10.8753 13.3122V3.375H11.063C11.3731 3.375 11.6255 3.12329 11.6255 2.8125C11.6255 2.50172 11.3731 2.25 11.063 2.25H11.0631ZM4.12533 1.31274C4.12533 1.20868 4.209 1.125 4.31307 1.125H7.31337H7.31267C7.36259 1.125 7.4104 1.14469 7.44556 1.17984C7.48071 1.215 7.5004 1.26281 7.5004 1.31273V2.24999H4.1254L4.12533 1.31274ZM9.75033 13.313V13.3123C9.75033 13.3623 9.73064 13.4101 9.69549 13.4452C9.66033 13.4804 9.61252 13.5001 9.56259 13.5001H2.06305C1.95898 13.5001 1.87531 13.4164 1.87531 13.3123V3.37513H9.75031L9.75033 13.313ZM7.87503 6.93774V9.93804V9.93734C7.87503 10.2481 7.62331 10.4998 7.31253 10.4998C7.00245 10.4998 6.75003 10.2481 6.75003 9.93734V6.93704V6.93774C6.75003 6.62696 7.00245 6.37524 7.31253 6.37524C7.62331 6.37524 7.87503 6.62696 7.87503 6.93774ZM4.87473 6.93774V9.93804L4.87543 9.93734C4.87543 10.2481 4.62301 10.4998 4.31293 10.4998C4.00215 10.4998 3.75043 10.2481 3.75043 9.93734V6.93704V6.93774C3.75043 6.62696 4.00215 6.37524 4.31293 6.37524C4.62301 6.37524 4.87543 6.62696 4.87543 6.93774H4.87473Z" fill="#F65351"/>
</svg>
