<svg width="23" height="23" viewBox="0 0 23 23" fill="none" xmlns="http://www.w3.org/2000/svg">
<path d="M4.39527 9.33984C3.04303 9.33984 1.91675 9.91231 1.91675 11.64C1.91675 13.008 2.67332 13.87 4.43008 13.87C6.49802 13.87 6.62918 12.5105 6.62918 12.5105H5.62798C5.62798 12.5105 5.41312 13.2421 4.36703 13.2421C3.51665 13.2421 2.90433 12.6686 2.90433 11.865H6.73159V11.3615C6.73159 10.5664 6.2272 9.34036 4.39275 9.34036L4.39527 9.33984ZM4.35997 9.98436C5.16698 9.98436 5.72179 10.4798 5.72179 11.2215H2.92904C2.92904 10.434 3.6493 9.98436 4.35997 9.98436Z" fill="#E53238"/>
<path d="M6.73286 7.66602V13.0034C6.73286 13.3055 6.71118 13.7315 6.71118 13.7315H7.66649C7.66649 13.7315 7.70076 13.4264 7.70076 13.1469C7.70076 13.1469 8.17237 13.8841 9.45548 13.8841C10.8067 13.8841 11.7252 12.9475 11.7252 11.6056C11.7252 10.3579 10.8819 9.35381 9.45853 9.35381C8.12493 9.35381 7.71088 10.0724 7.71088 10.0724V7.66602H6.73286ZM9.2114 10.012C10.1289 10.012 10.7124 10.6917 10.7124 11.6036C10.7124 12.5819 10.0386 13.2219 9.21795 13.2219C8.23844 13.2219 7.71036 12.4586 7.71036 11.6106C7.71036 10.8241 8.18445 10.012 9.2114 10.012Z" fill="#0064D2"/>
<path d="M14.0987 9.33984C12.065 9.33984 11.9344 10.4516 11.9344 10.6293H12.9466C12.9466 10.6293 12.9996 9.98034 14.0285 9.98034C14.6973 9.98034 15.2154 10.2854 15.2154 10.8731V11.082H14.0285C12.4533 11.082 11.6201 11.5423 11.6201 12.4763C11.6201 13.3952 12.3898 13.8952 13.4298 13.8952C14.8471 13.8952 15.3041 13.1132 15.3041 13.1132C15.3041 13.4239 15.3278 13.7305 15.3278 13.7305H16.2276C16.2276 13.7305 16.1928 13.3509 16.1928 13.1077V11.007C16.1928 9.62987 15.0802 9.33984 14.0987 9.33984ZM15.2154 11.7094V11.9884C15.2154 12.3519 14.9909 13.2558 13.6679 13.2558C12.9431 13.2558 12.6324 12.8947 12.6324 12.4763C12.6324 11.7145 13.6785 11.7094 15.2154 11.7094Z" fill="#F5AF02"/>
<path d="M15.6477 9.51367H16.7866L18.4213 12.7825L20.052 9.51367H21.0834L18.1131 15.3334H17.0312L17.8887 13.7111L15.6477 9.51367Z" fill="#86B817"/>
</svg>
