<svg width="14" height="10" viewBox="0 0 14 10" fill="none" xmlns="http://www.w3.org/2000/svg">
<path fill-rule="evenodd" clip-rule="evenodd" d="M11.8125 0.0847168C12.1608 0.0847168 12.4944 0.223072 12.7405 0.469169C12.9866 0.715814 13.125 1.0494 13.125 1.39722V8.60232C13.125 8.95067 12.9866 9.28482 12.7405 9.53037C12.4944 9.77646 12.1608 9.91482 11.8125 9.91482H2.21326C1.86545 9.91482 1.53131 9.77646 1.28521 9.53037C1.03911 9.28482 0.900757 8.95067 0.900757 8.60232V1.39722C0.900757 1.04941 1.03911 0.715814 1.28521 0.469169C1.53131 0.223072 1.86544 0.0847168 2.21326 0.0847168H11.8125ZM11.8125 0.960265H2.21326C2.09732 0.960265 1.98576 1.0062 1.90373 1.08824C1.8217 1.17027 1.77576 1.28129 1.77576 1.39722V8.60232C1.77576 8.71826 1.82169 8.82982 1.90373 8.91239C1.98576 8.99442 2.09733 9.04037 2.21326 9.04037H11.8125C11.9284 9.04037 12.0394 8.99443 12.1215 8.91239C12.2035 8.82982 12.25 8.71825 12.25 8.60232V1.39722C12.25 1.28128 12.2035 1.17027 12.1215 1.08824C12.0394 1.00621 11.9284 0.960265 11.8125 0.960265ZM9.56594 2.55825C9.74859 2.41223 10.0166 2.44231 10.1626 2.62551C10.3086 2.80817 10.2785 3.07614 10.0959 3.22216L8.32405 4.63744L8.3235 4.63799C7.59506 5.21768 6.39967 5.21768 5.6712 4.63799L5.67011 4.6369L3.90378 3.22161C3.72112 3.07506 3.69158 2.80763 3.83815 2.62497C3.98471 2.44177 4.25213 2.41224 4.4348 2.55879L6.20008 3.9735C6.63813 4.32185 7.35618 4.32185 7.7948 3.9735L9.56594 2.55825Z" fill="black"/>
</svg>
