<svg width="23" height="23" viewBox="0 0 23 23" fill="none" xmlns="http://www.w3.org/2000/svg">
<path d="M4.84057 3.30198C4.88938 3.66065 5.00329 3.74604 5.73554 3.89975C7.24885 4.20718 7.16749 3.72896 7.16749 11.4829C7.16749 19.2711 7.24886 18.8099 5.703 19.1685C4.95447 19.3394 4.80802 19.4418 4.80802 19.7492V20.125L18.7209 20.0567L18.8348 18.8953C18.8998 18.2634 19.0138 17.1361 19.0951 16.4018C19.209 15.1891 19.209 15.0866 18.9324 15.0866C18.7046 15.0866 18.4605 15.4795 18.0049 16.5042C17.6143 17.3923 17.175 18.1096 16.7844 18.4683L16.1823 19.0148H13.3022C11.3007 18.9978 10.3406 18.9465 10.1616 18.7928C9.60837 18.3488 9.527 17.8705 9.527 14.9329V12.0124H11.5285C13.8717 12.0124 14.0832 12.1319 14.4087 13.5325C14.5714 14.2668 14.6691 14.4035 14.9945 14.4035H15.3688L15.4664 8.25493H15.0596C14.6853 8.25493 14.6202 8.35745 14.425 9.26262C14.3111 9.82623 14.0832 10.4069 13.9368 10.5435C13.7578 10.7144 13.0744 10.8339 11.5936 10.9193L9.527 11.0388L9.55955 7.5547L9.60837 4.07055L12.6187 4.01931C14.8318 3.98515 15.7267 4.03638 16.0196 4.1901C16.459 4.44629 17.1099 5.84677 17.2726 6.88861C17.354 7.45223 17.4353 7.57177 17.7608 7.57177C18.0862 7.57177 18.135 7.46931 18.2164 6.66661C18.2652 6.18838 18.3303 5.12945 18.3629 4.32673L18.4117 2.875H4.79175L4.84057 3.30198Z" fill="#E16C35"/>
</svg>
