
<svg width="16" height="16" viewBox="0 0 16 16" xmlns="http://www.w3.org/2000/svg"><path d="M8.00028 0.999969C4.13482 0.999969 0.972168 4.15559 0.972168 8.04215C0.972168 11.5562 3.54446 14.4729 6.90389 15V10.0803H5.11875V8.04215H6.90389V6.48893C6.90389 4.72487 7.95108 3.75499 9.56052 3.75499C10.3266 3.75499 11.1278 3.88852 11.1278 3.88852V5.62447H10.2422C9.37076 5.62447 9.09667 6.16563 9.09667 6.72087V8.04215H11.0505L10.7342 10.0803H9.09667V15C10.7528 14.7384 12.2609 13.8934 13.3486 12.6175C14.4363 11.3416 15.0322 9.71878 15.0284 8.04215C15.0284 4.15559 11.8657 0.999969 8.00028 0.999969Z" class="fill-gray-alpha-950"></path></svg>