<svg width="20" height="20" viewBox="0 0 20 20" fill="none" xmlns="http://www.w3.org/2000/svg">
<path d="M4.16631 1.6665C4.62646 1.6665 4.99991 2.03994 4.99991 2.5001V8.33377C4.99991 8.79392 4.62648 9.16659 4.16631 9.16659C3.70615 9.16659 3.3335 8.79394 3.3335 8.33377V2.5001C3.3335 2.03995 3.70615 1.6665 4.16631 1.6665Z" fill="black"/>
<path d="M5.00017 12.4999H5.83377C6.29392 12.4999 6.66659 12.1265 6.66659 11.6663C6.66659 11.2061 6.29394 10.8335 5.83377 10.8335H2.5001C2.03995 10.8335 1.6665 11.2061 1.6665 11.6663C1.6665 12.1265 2.03994 12.4999 2.5001 12.4999H3.3337V17.4999C3.3337 17.9601 3.70635 18.3335 4.16652 18.3335C4.62669 18.3335 5.00012 17.9601 5.00012 17.4999L5.00017 12.4999Z" fill="black"/>
<path d="M11.6664 9.16642H10.8336V17.5001C10.8336 17.9602 10.4602 18.3337 10 18.3337C9.53985 18.3337 9.16642 17.9603 9.16642 17.5001V9.16642H8.3336C7.87345 9.16642 7.5 8.79377 7.5 8.3336C7.5 7.87343 7.87343 7.5 8.3336 7.5H11.6664C12.1266 7.5 12.5 7.87343 12.5 8.3336C12.5 8.79377 12.1266 9.16642 11.6664 9.16642Z" fill="black"/>
<path d="M10.0001 1.6665C10.4603 1.6665 10.8337 2.03994 10.8337 2.5001V5.0001C10.8337 5.46025 10.4603 5.8337 10.0001 5.8337C9.53994 5.8337 9.1665 5.46027 9.1665 5.0001V2.5001C9.1665 2.03995 9.53994 1.6665 10.0001 1.6665Z" fill="black"/>
<path d="M16.6664 2.5001C16.6664 2.03995 16.2938 1.6665 15.8336 1.6665C15.3734 1.6665 15 2.03994 15 2.5001V11.6664C15 12.1266 15.3734 12.5 15.8336 12.5C16.2938 12.5 16.6664 12.1266 16.6664 11.6664V2.5001Z" fill="black"/>
<path d="M16.6664 15.8337H17.5C17.9601 15.8337 18.3336 15.4603 18.3336 15.0001C18.3336 14.5399 17.9601 14.1665 17.5 14.1665H14.1663C13.7062 14.1665 13.3335 14.5399 13.3335 15.0001C13.3335 15.4603 13.7061 15.8337 14.1663 15.8337H14.9999V17.5001C14.9999 17.9603 15.3733 18.3337 15.8335 18.3337C16.2937 18.3337 16.6663 17.9603 16.6663 17.5001L16.6664 15.8337Z" fill="black"/>
</svg>
