<svg width="19" height="19" viewBox="0 0 19 19" fill="none" xmlns="http://www.w3.org/2000/svg">
<path fill-rule="evenodd" clip-rule="evenodd" d="M17.8889 9.74469C17.8889 9.0975 17.8308 8.47521 17.7229 7.87781H9.12695V11.4083H14.0389C13.8273 12.5492 13.1843 13.5158 12.2177 14.163V16.453H15.1674C16.8932 14.8641 17.8889 12.5243 17.8889 9.74469Z" fill="#4285F4"/>
<path fill-rule="evenodd" clip-rule="evenodd" d="M9.12691 18.6642C11.5912 18.6642 13.6572 17.8469 15.1673 16.453L12.2176 14.163C11.4004 14.7106 10.3549 15.0342 9.12691 15.0342C6.74974 15.0342 4.73766 13.4286 4.01995 11.2714H0.970703V13.6361C2.47251 16.6189 5.55909 18.6642 9.12691 18.6642Z" fill="#34A853"/>
<path fill-rule="evenodd" clip-rule="evenodd" d="M4.02002 11.2713C3.83748 10.7237 3.73377 10.1388 3.73377 9.5372C3.73377 8.93565 3.83748 8.35069 4.02002 7.80307V5.43835H0.970779C0.352633 6.6705 0 8.06444 0 9.5372C0 11.01 0.352633 12.4039 0.970779 13.636L4.02002 11.2713Z" fill="#FBBC05"/>
<path fill-rule="evenodd" clip-rule="evenodd" d="M9.12679 4.04008C10.4668 4.04008 11.6699 4.50058 12.6158 5.40498L15.2336 2.7872C13.6529 1.31444 11.5869 0.410034 9.12679 0.410034C5.55897 0.410034 2.47238 2.45531 0.970581 5.43817L4.01982 7.80289C4.73754 5.6456 6.74962 4.04008 9.12679 4.04008Z" fill="#EA4335"/>
</svg>
