<svg width="18" height="18" viewBox="0 0 18 18" fill="none" xmlns="http://www.w3.org/2000/svg">
<mask id="mask0_11207_4546" style="mask-type:luminance" maskUnits="userSpaceOnUse" x="0" y="0" width="18" height="18">
<path d="M17.25 0H0V17.25H17.25V0Z" fill="white"/>
</mask>
<g mask="url(#mask0_11207_4546)">
<path d="M8.625 17.25C13.3885 17.25 17.25 13.3885 17.25 8.625C17.25 3.86153 13.3885 0 8.625 0C3.86153 0 0 3.86153 0 8.625C0 13.3885 3.86153 17.25 8.625 17.25Z" fill="#FF90E8"/>
<path d="M7.87622 12.9717C5.34973 12.9717 3.86353 10.9453 3.86353 8.42453C3.86353 5.80506 5.49837 3.67969 8.61929 3.67969C11.8394 3.67969 12.9292 5.8544 12.9788 7.09007H10.6504C10.6009 6.39812 10.0064 5.36018 8.56978 5.36018C7.03402 5.36018 6.04324 6.69464 6.04324 8.32569C6.04324 9.95673 7.03402 11.2912 8.56978 11.2912C9.95686 11.2912 10.5514 10.2039 10.7991 9.11648H8.56978V8.2269H13.2475V12.7741H11.1953V9.90734C11.0467 10.9453 10.4027 12.9717 7.87622 12.9717Z" fill="black"/>
</g>
</svg>
