<?xml version="1.0" encoding="UTF-8"?>
<svg width="1200pt" height="1200pt" version="1.1" viewBox="0 0 1200 1200" xmlns="http://www.w3.org/2000/svg">
 <path d="m600 112.5c-129.28 0-253.31 51.375-344.72 142.78-91.406 91.406-142.78 215.44-142.78 344.72 0 129.29 51.375 253.31 142.78 344.72 91.406 91.406 215.44 142.78 344.72 142.78 129.29 0 253.31-51.375 344.72-142.78 91.406-91.406 142.78-215.44 142.78-344.72-0.14062-129.24-51.562-253.18-142.97-344.53-91.359-91.406-215.29-142.82-344.53-142.97zm0 900c-109.41 0-214.31-43.453-291.71-120.79-77.344-77.391-120.79-182.29-120.79-291.71s43.453-214.31 120.79-291.71c77.391-77.344 182.29-120.79 291.71-120.79s214.31 43.453 291.71 120.79c77.344 77.391 120.79 182.29 120.79 291.71-0.14062 109.36-43.641 214.22-120.98 291.52-77.297 77.344-182.16 120.84-291.52 120.98z"/>
 <path d="m600 300c-49.688 0.046875-97.359 19.828-132.52 54.984s-54.938 82.828-54.984 132.52v37.5c0 20.719 16.781 37.5 37.5 37.5s37.5-16.781 37.5-37.5v-37.5c0-62.109 50.391-112.5 112.5-112.5s112.5 50.391 112.5 112.5v5.4844c0.14062 28.359-15.844 54.375-41.25 67.078l-25.641 12.797c-51.047 25.219-83.25 77.25-83.109 134.16v80.484c0 20.719 16.781 37.5 37.5 37.5s37.5-16.781 37.5-37.5v-80.484c-0.09375-28.406 15.984-54.422 41.438-67.078l25.641-12.797c50.953-25.266 83.109-77.297 82.922-134.16v-5.4844c-0.046875-49.688-19.828-97.359-54.984-132.52s-82.828-54.938-132.52-54.984z"/>
 <path d="m637.5 900c0 50.016-75 50.016-75 0s75-50.016 75 0"/>
</svg>
