<svg width="14" height="14" viewBox="0 0 14 14" fill="none" xmlns="http://www.w3.org/2000/svg">
<path d="M6.99992 1.02148C3.70409 1.02148 1.02075 3.70482 1.02075 7.00065C1.02075 10.2965 3.70409 12.9798 6.99992 12.9798C10.2958 12.9798 12.9791 10.2965 12.9791 7.00065C12.9791 3.70482 10.2958 1.02148 6.99992 1.02148ZM6.99992 11.8132C4.34575 11.8132 2.18742 9.65482 2.18742 7.00065C2.18742 4.34648 4.34575 2.18815 6.99992 2.18815C9.65409 2.18815 11.8124 4.34648 11.8124 7.00065C11.8124 9.65482 9.65409 11.8132 6.99992 11.8132Z" fill="black"/>
<path d="M7.00005 3.5C6.61505 3.5 6.30005 3.815 6.30005 4.2V7.84875C6.30005 8.23375 6.61505 8.54875 7.00005 8.54875C7.38505 8.54875 7.70005 8.23375 7.70005 7.84875V4.2C7.70005 3.815 7.38505 3.5 7.00005 3.5Z" fill="black"/>
<path d="M7.70005 9.79961C7.70005 10.1862 7.38665 10.4996 7.00005 10.4996C6.61345 10.4996 6.30005 10.1862 6.30005 9.79961C6.30005 9.41301 6.61345 9.09961 7.00005 9.09961C7.38665 9.09961 7.70005 9.41301 7.70005 9.79961Z" fill="black"/>
</svg>
