<svg width="16" height="16" viewBox="0 0 16 16" xmlns="http://www.w3.org/2000/svg"><g clip-path="url(#clip0_9_966)"><path fill-rule="evenodd" clip-rule="evenodd" d="M8 12C10.2091 12 12 10.2091 12 8C12 5.79086 10.2091 4 8 4C5.79086 4 4 5.79086 4 8C4 10.2091 5.79086 12 8 12ZM8 10.6667C9.47273 10.6667 10.6667 9.47273 10.6667 8C10.6667 6.52724 9.47273 5.33333 8 5.33333C6.52724 5.33333 5.33333 6.52724 5.33333 8C5.33333 9.47273 6.52724 10.6667 8 10.6667Z" class="fill-gray-alpha-950"></path><path d="M12.0002 3.33331C11.632 3.33331 11.3335 3.63179 11.3335 3.99998C11.3335 4.36817 11.632 4.66665 12.0002 4.66665C12.3684 4.66665 12.6668 4.36817 12.6668 3.99998C12.6668 3.63179 12.3684 3.33331 12.0002 3.33331Z" class="fill-gray-alpha-950"></path><path fill-rule="evenodd" clip-rule="evenodd" d="M1.10248 2.85073C0.666504 3.70637 0.666504 4.82648 0.666504 7.06669V8.93335C0.666504 11.1736 0.666504 12.2937 1.10248 13.1493C1.48597 13.902 2.09789 14.5139 2.85054 14.8974C3.70619 15.3334 4.8263 15.3334 7.0665 15.3334H8.93317C11.1734 15.3334 12.2935 15.3334 13.1491 14.8974C13.9018 14.5139 14.5137 13.902 14.8972 13.1493C15.3332 12.2937 15.3332 11.1736 15.3332 8.93335V7.06669C15.3332 4.82648 15.3332 3.70637 14.8972 2.85073C14.5137 2.09807 13.9018 1.48615 13.1491 1.10266C12.2935 0.666687 11.1734 0.666687 8.93317 0.666687H7.0665C4.8263 0.666687 3.70619 0.666687 2.85054 1.10266C2.09789 1.48615 1.48597 2.09807 1.10248 2.85073ZM8.93317 2.00002H7.0665C5.9244 2.00002 5.148 2.00106 4.54789 2.05009C3.96333 2.09785 3.6644 2.18441 3.45586 2.29067C2.9541 2.54633 2.54615 2.95428 2.29048 3.45605C2.18423 3.66458 2.09766 3.96351 2.0499 4.54807C2.00088 5.14819 1.99984 5.92458 1.99984 7.06669V8.93335C1.99984 10.0755 2.00088 10.8518 2.0499 11.452C2.09766 12.0366 2.18423 12.3355 2.29048 12.544C2.54615 13.0458 2.9541 13.4537 3.45586 13.7094C3.6644 13.8156 3.96333 13.9022 4.54789 13.95C5.148 13.999 5.9244 14 7.0665 14H8.93317C10.0753 14 10.8516 13.999 11.4518 13.95C12.0364 13.9022 12.3353 13.8156 12.5438 13.7094C13.0456 13.4537 13.4535 13.0458 13.7092 12.544C13.8154 12.3355 13.902 12.0366 13.9498 11.452C13.9988 10.8518 13.9998 10.0755 13.9998 8.93335V7.06669C13.9998 5.92458 13.9988 5.14819 13.9498 4.54807C13.902 3.96351 13.8154 3.66458 13.7092 3.45605C13.4535 2.95428 13.0456 2.54633 12.5438 2.29067C12.3353 2.18441 12.0364 2.09785 11.4518 2.05009C10.8516 2.00106 10.0753 2.00002 8.93317 2.00002Z" class="fill-gray-alpha-950"></path></g><defs><clipPath id="clip0_9_966"><rect width="16" height="16" class="fill-background"></rect></clipPath></defs></svg>