<svg width="16" height="16" viewBox="0 0 16 16" fill="none" xmlns="http://www.w3.org/2000/svg">
<path d="M12.0001 9.33334C11.3126 9.33334 10.6914 9.60146 10.2182 10.0302L6.66705 8.25449V7.74511L10.2182 5.96938C10.6914 6.39813 11.3126 6.66687 12.0001 6.66687C13.4708 6.66687 14.667 5.47062 14.667 3.99994C14.667 2.52927 13.4708 1.33301 12.0001 1.33301C10.5294 1.33301 9.33318 2.52926 9.33318 3.99994C9.33318 4.29743 9.39318 4.57869 9.48381 4.84619L6.19434 6.49046C5.71309 5.79297 4.90997 5.33297 3.99994 5.33297C2.52927 5.33297 1.33301 6.52922 1.33301 7.9999C1.33301 9.47058 2.52926 10.6668 3.99994 10.6668C4.90994 10.6668 5.71301 10.2075 6.19501 9.50934L9.48448 11.1536C9.39385 11.4211 9.33322 11.7024 9.33322 11.9999C9.33322 13.4705 10.5295 14.6668 12.0002 14.6668C13.4708 14.6668 14.6671 13.4705 14.6671 11.9999C14.6671 10.5292 13.4708 9.33293 12.0002 9.33293L12.0001 9.33334ZM12.0001 2.66707C12.7351 2.66707 13.3332 3.26519 13.3332 4.00019C13.3332 4.73582 12.7351 5.33331 12.0001 5.33331C11.2651 5.33331 10.667 4.73519 10.667 4.00019C10.667 3.26457 11.2651 2.66707 12.0001 2.66707ZM4.00011 9.33334C3.26511 9.33334 2.66699 8.73522 2.66699 8.00022C2.66699 7.26459 3.26511 6.6671 4.00011 6.6671C4.73511 6.6671 5.33323 7.26522 5.33323 8.00022C5.33323 8.73522 4.73511 9.33334 4.00011 9.33334ZM12.0001 13.3333C11.2651 13.3333 10.667 12.7352 10.667 12.0002C10.667 11.2652 11.2651 10.6671 12.0001 10.6671C12.7351 10.6671 13.3332 11.2652 13.3332 12.0002C13.3332 12.7352 12.7351 13.3333 12.0001 13.3333Z" fill="black"/>
</svg>
