<svg width="20" height="20" viewBox="0 0 20 20" fill="none" xmlns="http://www.w3.org/2000/svg">
<path d="M6.4002 15.8004C6.98366 15.8004 7.54323 15.5686 7.95586 15.1561C8.36843 14.7434 8.6002 14.1839 8.6002 13.6004C8.6002 13.0169 8.36843 12.4574 7.95586 12.0447C7.54323 11.6322 6.98366 11.4004 6.4002 11.4004C5.81673 11.4004 5.25716 11.6322 4.84453 12.0447C4.43196 12.4574 4.2002 13.0169 4.2002 13.6004C4.2002 14.1839 4.43196 14.7434 4.84453 15.1561C5.25716 15.5686 5.81673 15.8004 6.4002 15.8004ZM6.4002 12.6004C6.66543 12.6004 6.9198 12.7057 7.1073 12.8933C7.29486 13.0808 7.4002 13.3352 7.4002 13.6004C7.4002 13.8656 7.29486 14.12 7.1073 14.3075C6.9198 14.4951 6.66543 14.6004 6.4002 14.6004C6.13496 14.6004 5.8806 14.4951 5.6931 14.3075C5.50553 14.12 5.4002 13.8656 5.4002 13.6004C5.4002 13.3352 5.50553 13.0808 5.6931 12.8933C5.8806 12.7057 6.13496 12.6004 6.4002 12.6004Z" fill="#75777C"/>
<path d="M15.7999 6.39922C15.7999 5.81575 15.5681 5.25619 15.1556 4.84355C14.7429 4.43099 14.1834 4.19922 13.5999 4.19922C13.0164 4.19922 12.4569 4.43099 12.0442 4.84355C11.6317 5.25619 11.3999 5.81575 11.3999 6.39922C11.3999 6.98269 11.6317 7.54225 12.0442 7.95489C12.4569 8.36745 13.0164 8.59922 13.5999 8.59922C14.1834 8.59922 14.7429 8.36745 15.1556 7.95489C15.5681 7.54225 15.7999 6.98269 15.7999 6.39922ZM12.5999 6.39922C12.5999 6.13399 12.7052 5.87962 12.8928 5.69212C13.0803 5.50455 13.3347 5.39922 13.5999 5.39922C13.8651 5.39922 14.1195 5.50456 14.307 5.69212C14.4946 5.87962 14.5999 6.13399 14.5999 6.39922C14.5999 6.66445 14.4946 6.91882 14.307 7.10632C14.1195 7.29389 13.8651 7.39922 13.5999 7.39922C13.3347 7.39922 13.0803 7.29388 12.8928 7.10632C12.7052 6.91882 12.5999 6.66445 12.5999 6.39922Z" fill="#75777C"/>
<path d="M9.97623 14.0248L12.1762 16.2248L13.0242 15.3768L11.8482 14.2008H13.8002C14.3837 14.2008 14.9433 13.969 15.3559 13.5564C15.7685 13.1438 16.0002 12.5842 16.0002 12.0008V9.80078H14.8002V12.0008C14.8002 12.266 14.6949 12.5204 14.5073 12.7079C14.3198 12.8954 14.0655 13.0008 13.8002 13.0008H11.8482L13.0242 11.8248L12.1762 10.9768L9.97623 13.1768V13.1767C9.86393 13.2892 9.80078 13.4418 9.80078 13.6008C9.80078 13.7597 9.86393 13.9123 9.97623 14.0248Z" fill="#75777C"/>
<path d="M4 7.99939V10.1994H5.2V7.99939C5.2 7.73416 5.30534 7.47979 5.4929 7.29229C5.6804 7.10473 5.93477 6.99939 6.2 6.99939H8.152L6.97602 8.17538L7.824 9.02336L10.024 6.82336V6.82342C10.1363 6.71092 10.1995 6.55839 10.1995 6.39941C10.1995 6.24042 10.1363 6.08789 10.024 5.97539L7.824 3.77539L6.97602 4.62337L8.152 5.79941H6.2C5.61653 5.79941 5.05697 6.03117 4.64433 6.44374C4.23177 6.85637 4 7.41593 4 7.99939Z" fill="#75777C"/>
</svg>
