<svg width="16" height="16" viewBox="0 0 16 16" xmlns="http://www.w3.org/2000/svg"><path d="M13.8798 1.00022H2.19873C2.04817 0.993166 1.89769 1.01587 1.75592 1.06705C1.61414 1.11823 1.48386 1.19686 1.37251 1.29845C1.26117 1.40004 1.17095 1.5226 1.10703 1.6591C1.04311 1.79561 1.00674 1.94337 1 2.09395V13.8013C1.00882 14.1164 1.13795 14.4162 1.36087 14.6391C1.58379 14.862 1.88359 14.9912 2.19873 15H13.8798C14.1861 14.9864 14.4749 14.8532 14.6843 14.6291C14.8937 14.405 15.0069 14.1079 14.9998 13.8013V2.09395C15.0023 1.94739 14.9748 1.80187 14.9191 1.6663C14.8633 1.53074 14.7805 1.40799 14.6756 1.30557C14.5708 1.20316 14.4461 1.12326 14.3092 1.07075C14.1724 1.01824 14.0263 0.994242 13.8798 1.00022ZM5.37492 12.6725H3.33621V6.4339H5.37492V12.6725ZM4.40369 5.48889C4.26143 5.49385 4.11967 5.46933 3.98734 5.41689C3.855 5.36444 3.73493 5.28519 3.63469 5.18412C3.53445 5.08306 3.45618 4.96235 3.40482 4.82959C3.35345 4.69683 3.33009 4.55488 3.33621 4.41266C3.32992 4.2689 3.35374 4.12542 3.40616 3.99142C3.45859 3.8574 3.53844 3.73583 3.64059 3.6345C3.74275 3.53316 3.86496 3.4543 3.99939 3.40297C4.13382 3.35163 4.27749 3.32897 4.42119 3.33643C4.56345 3.33148 4.70521 3.35598 4.83754 3.40843C4.96989 3.46088 5.08995 3.54012 5.19019 3.64119C5.29044 3.74226 5.3687 3.86297 5.42007 3.99573C5.47144 4.12849 5.49479 4.27044 5.48867 4.41266C5.49496 4.55642 5.47114 4.6999 5.41872 4.8339C5.3663 4.96792 5.28645 5.08949 5.18429 5.19082C5.08213 5.29216 4.95992 5.37102 4.8255 5.42235C4.69106 5.47368 4.54739 5.49635 4.40369 5.48889ZM12.6723 12.6725H10.6248V9.2601C10.6248 8.44637 10.3361 7.88638 9.60985 7.88638C9.38428 7.8883 9.16475 7.95996 8.98152 8.09156C8.79822 8.22316 8.66014 8.40822 8.58612 8.62136C8.52925 8.78114 8.50545 8.95079 8.51612 9.1201V12.6725H6.50366V6.4339H8.51612V7.30889C8.69506 6.98015 8.96131 6.70733 9.28558 6.52044C9.60985 6.33363 9.97945 6.24007 10.3536 6.25013C11.6748 6.25013 12.6723 7.12514 12.6723 8.98886V12.6725Z" class="fill-gray-alpha-950"></path></svg>