<svg width="150" height="150" viewBox="0 0 150 150" fill="none" xmlns="http://www.w3.org/2000/svg">
<path fill-rule="evenodd" clip-rule="evenodd" d="M90.0923 82.3777C87.2153 83.1335 85.5278 83.5613 84.7076 83.7722C84.6666 83.7839 84.4322 83.8484 84.1451 83.7898L83.7818 83.7194C82.0474 87.6393 75.6783 101.996 75.5669 102.229C70.4693 113.046 58.5569 118.993 46.8919 116.579C45.9076 116.38 45.1342 116.158 44.6009 116.011C44.3666 115.941 42.0169 115.273 41.6127 115.144C32.2904 112.056 27.4214 101.72 31.2064 92.5614C31.5111 91.8055 31.9974 90.8211 32.6478 89.8191C38.6302 80.6668 42.4739 74.8429 42.9076 74.1516C43.0072 73.9876 43.054 73.929 43.1478 73.8821C43.1185 71.8137 42.8607 47.6721 42.8665 47.4046C43.0482 36.3245 51.9075 27.1784 63.1753 26.7559C63.2046 26.7559 63.6265 26.7207 64.3765 26.7441C68.0737 26.6445 101.695 25.8301 113.654 25.7422C114.064 25.7422 117.474 25.7188 118.939 25.7481L118.998 25.6719C120.656 23.5274 122.554 21.1719 122.865 20.7851C123.123 20.4629 123.486 20.4453 123.545 20.4453C123.89 20.4277 124.377 20.6211 128.226 20.7734C128.226 20.5508 128.232 20.3691 128.232 20.2871C128.244 19.584 128.806 18.9863 129.556 18.9863C131.379 18.9863 133.951 19.1387 134.332 19.1563C135.222 19.209 136.113 19.2676 137.004 19.3262C138.035 19.3965 139.06 19.4785 140.091 19.5488C140.103 19.5488 140.537 19.4902 140.806 19.8125C140.818 19.8242 140.906 19.9297 140.935 20.0352C140.953 20.1172 140.953 20.2051 140.976 20.2871C141.006 21.0371 141.047 21.7871 141.076 22.5312C141.099 23.1406 140.59 23.4453 140.238 23.4629C138.597 23.539 132.187 23.7793 129.556 23.8379C128.918 23.8496 128.256 23.3691 128.226 22.5312V22.2559C127.019 22.2793 125.326 22.25 124.136 22.332C124.06 22.3379 124.054 22.4551 124.013 22.5195C123 24.0488 122.297 25.121 121.705 26C131.748 27.623 139.622 36.418 139.435 47.105C139.183 61.7775 139.077 65.89 139.077 66.8688C139.077 66.9801 139.071 67.0563 139.06 67.109C139.183 67.0914 139.704 67.3258 139.775 67.6832C139.903 68.3512 138.931 68.6676 138.778 68.7145C129.567 71.3864 129.573 71.4156 120.357 74.0582C114.363 75.7809 114.363 75.7867 108.345 77.4391C107.314 77.7262 106.33 77.9958 105.375 78.2594L105.843 131.814C107.384 131.791 110.256 132.02 110.689 133.936C111.293 136.643 105.152 138.957 105.152 138.957V138.951C103.195 139.906 101.238 140.855 99.275 141.799C99.0114 141.928 98.7653 141.928 98.7184 141.928C97.8161 141.939 92.232 141.957 91.0602 141.951C90.3453 141.945 89.7359 141.359 89.73 140.627C89.7125 138.453 89.771 113.937 89.8238 107.538C89.8589 103.038 90.0289 87.5744 90.0933 82.3782L90.0923 82.3777ZM97.2115 80.4792L96.9068 139.723L98.3013 139.407L103.37 137.004L103.874 78.6679C101.372 79.3476 99.1625 79.9511 97.2114 80.4784L97.2115 80.4792ZM83.764 81.2409C83.6936 81.1179 83.6585 80.9655 83.6292 80.8249C83.5882 80.6257 83.6292 80.4206 83.6292 80.2096C83.5706 76.8815 83.5296 74.485 83.4827 72.0183L74.471 68.0984C74.0549 68.1922 73.6858 68.28 73.3753 68.3562C71.7405 68.7312 65.6291 70.0847 63.5784 70.5066C59.4475 71.3621 45.4609 74.1277 45.4496 74.1277C45.3031 74.1512 45.0278 74.0574 45.0102 73.8406C44.9926 73.659 45.227 73.4246 45.4321 73.3718C45.4321 73.366 60.5958 69.7917 65.5183 68.7371C69.1511 67.9519 71.9636 67.3777 73.7801 67.0145C74.6941 64.6415 79.3464 57.6453 83.1902 52.5245C83.1726 51.1475 83.155 49.671 83.1374 48.0772C83.032 39.8272 77.7937 32.9547 70.3699 30.4522C70.0477 30.3468 68.659 29.8487 66.1453 29.5264C54.8484 28.0733 45.0466 36.8038 44.9178 47.9777C44.6307 73.4377 44.6366 74.0052 44.6307 74.0227C44.6248 74.134 44.5663 74.2395 44.5311 74.345C45.41 74.4915 70.8273 78.8742 79.0073 80.304C80.5952 80.5793 82.1656 81.1712 83.7651 81.2415L83.764 81.2409ZM139.421 21.0884C138.748 21.1411 138.068 21.1939 137.394 21.2466C136.386 21.3228 135.566 21.3814 134.869 21.4224L139.375 21.6685L139.421 21.0884ZM116.945 28.3891C110.236 28.3716 109.791 28.3598 102.244 28.2778C97.492 28.2309 81.8065 28.2309 72.074 28.2368C73.3161 28.7114 74.4938 29.2974 75.6013 29.9829C77.2947 29.9419 86.9861 29.6958 90.3201 29.6958C94.6736 29.6958 97.4333 29.7778 98.0545 29.8013C99.6131 29.8423 103.615 29.9888 103.644 29.9946C103.855 30.0239 104.16 30.1528 104.16 30.3638C104.16 30.5747 103.855 30.7036 103.644 30.7329C103.586 30.7446 97.9666 30.938 95.9568 30.9849C94.7322 31.0083 90.1912 31.0435 88.6678 31.02C86.3417 30.9966 79.7851 30.8443 76.7851 30.7739C82.3105 34.7407 85.6855 41.2388 85.5976 48.0702C85.3046 71.8764 85.1113 78.5677 85.1113 80.8177C85.1113 80.9114 85.1054 80.9759 85.0995 81.0286C86.6698 80.5833 90.9823 79.3646 101.366 76.6165C102.303 76.3704 109.417 74.4895 113.067 73.5579C118.668 72.1281 127.276 70.0071 128.512 69.7024C133.328 68.5129 133.697 68.5246 137.846 67.4231C137.834 67.4173 137.682 67.218 137.623 66.9134C137.588 66.7434 137.594 66.5149 137.594 66.3391L137.231 47.1029C137.061 37.4818 129.737 29.3729 120.039 28.4704C119.348 29.4723 118.528 30.6325 117.192 32.4958C114.35 36.4743 114.344 36.4684 111.362 40.3415C109.211 43.1423 106.194 47.0154 104.594 49.072C105.098 52.4588 104.131 56.3318 101.641 56.49C99.7424 56.6131 98.2483 54.4334 98.1604 50.9295C98.1194 49.201 98.7405 45.9021 100.451 44.8593C100.938 44.5604 101.342 44.5663 101.506 44.5604C101.535 44.5604 103.018 44.3612 104.026 46.8983C104.992 45.4452 106.744 42.8319 110.19 37.8222C112.985 33.7617 112.973 33.7558 115.903 29.7889C116.014 29.6424 116.43 29.0799 116.945 28.3886L116.945 28.3891ZM102.555 49.0541C102.538 48.7377 102.502 48.4155 102.456 48.0991C102.245 46.851 101.811 46.1479 101.501 46.0424H101.489C101.389 46.0483 100.838 46.5932 100.633 48.2163C100.37 50.2847 100.862 52.9624 101.53 53.7417C101.922 53.3081 102.35 52.1187 102.508 50.6889L101.442 50.7007C101.073 50.6772 100.803 50.2436 100.803 49.9975C100.803 49.5874 101.149 49.2358 101.501 49.2065C101.829 49.1831 102.286 49.3882 102.497 49.1304L102.555 49.0541ZM43.7977 75.5217L34.4813 90.9667C30.0633 98.2674 32.6825 108.118 40.7626 111.954C41.8407 112.464 42.8661 112.757 43.0536 112.81C44.5595 113.226 46.4345 113.776 47.5653 114.005C58.2587 116.202 69.1341 110.917 73.9266 100.974C74.6356 99.5088 74.6356 99.4619 82.2527 83.4137C72.9012 81.5679 44.2552 75.8082 44.2302 75.7964C44.0896 75.7027 43.9079 75.6499 43.7966 75.521L43.7977 75.5217Z" fill="black"/>
<path fill-rule="evenodd" clip-rule="evenodd" d="M24.3874 133.601C24.0417 133.425 24.0592 132.78 24.1823 132.511C24.4284 131.954 24.6686 131.398 24.9206 130.847C25.0143 130.636 25.6647 129.195 26.1335 128.275C26.4674 127.613 27.821 125.228 28.3248 124.46C29.3385 122.919 32.9596 117.839 32.9831 117.81C33.2643 117.458 33.7917 117.429 34.0026 117.558C34.2135 117.687 34.4889 118.05 34.2546 118.572C34.1315 118.853 31.4362 124.267 30.5866 125.82C30.1471 126.622 28.6881 128.943 28.2663 129.546C27.6687 130.396 26.7077 131.649 26.5671 131.831C26.1979 132.312 25.8229 132.786 25.4538 133.272C25.2311 133.56 24.7214 133.765 24.3874 133.601L24.3874 133.601ZM36.6394 131.79C36.2116 131.738 36.03 131.14 36.0007 130.911C35.9538 130.566 35.9304 130.208 35.9069 129.857C35.8952 129.728 35.8249 128.808 35.819 128.216C35.819 127.788 35.9421 126.218 36.0476 125.702C36.2468 124.665 37.1667 121.197 37.1726 121.161C37.2663 120.798 37.6296 120.47 37.9987 120.517C38.2448 120.546 38.5964 120.775 38.6433 121.337C38.6608 121.542 38.7136 125.011 38.6608 126.019C38.6374 126.546 38.3855 128.099 38.2858 128.509C38.1394 129.089 37.8522 129.962 37.8112 130.091C37.7058 130.425 37.5827 130.753 37.4714 131.093C37.36 131.427 37.0788 131.837 36.6394 131.79ZM20.4031 122.503C20.1219 122.116 20.6023 121.448 20.6141 121.431C20.8953 121.144 21.1648 120.851 21.4461 120.558C21.5457 120.452 22.2781 119.702 22.7821 119.245C23.1395 118.923 24.5575 117.821 25.0672 117.499C26.0867 116.855 29.6668 114.874 29.702 114.857C30.1121 114.64 30.5926 114.827 30.7391 115.026C30.8797 115.226 30.9617 115.648 30.5691 116.058C30.4168 116.222 27.5046 118.905 26.614 119.632C26.1453 120.019 24.657 121.015 24.2351 121.255C23.6433 121.595 22.7059 122.052 22.5711 122.116C22.2079 122.292 21.8563 122.485 21.4813 122.632C21.2469 122.726 20.6785 122.884 20.4031 122.503Z" fill="black"/>
<path fill-rule="evenodd" clip-rule="evenodd" d="M20.28 62.6842C20.3562 62.5904 20.5554 62.5201 20.8015 62.6197C20.8133 62.6256 21.0535 62.7955 21.0769 62.8131C22.864 64.1315 21.5222 65.7311 19.3425 65.6666C17.3973 65.608 16.1199 64.0083 17.0339 62.7896C17.5671 62.0747 18.7273 61.7759 19.9109 62.274C19.9344 62.2798 20.2918 62.4849 20.1863 62.772C20.1043 63.0064 19.8816 63.0064 19.7117 62.9947C19.7 62.9947 19.325 62.854 18.8093 62.9185C18.2761 62.9829 17.6375 63.399 18.0183 63.8091C18.2468 64.0611 19.1902 64.5943 20.4676 64.2427C20.6316 64.2017 20.8719 64.0962 20.8777 64.0201C20.8953 63.7916 20.5145 63.358 20.3797 63.2349C20.368 63.2232 20.3562 63.2173 20.3445 63.2056C20.1805 62.9771 20.2039 62.7838 20.28 62.6842Z" fill="black"/>
<path fill-rule="evenodd" clip-rule="evenodd" d="M54.8265 18.972C54.3987 18.9662 53.889 19.0951 53.7132 19.2181C53.7073 19.224 53.3323 19.3178 53.18 19.1303C53.0335 18.9369 53.2445 18.6439 53.2562 18.6381C53.3616 18.5326 53.8069 18.017 54.68 17.8119C55.6937 17.5658 56.7953 17.9994 55.9633 19.6693C55.8637 19.8685 55.5414 20.3724 55.2192 20.5716C54.1293 21.2454 52.4535 20.3548 52.9692 19.5462C53.1098 19.3236 53.5551 19.2005 53.7543 19.3997C53.8188 19.4642 53.6781 19.7103 53.6781 19.7103C54.1703 19.8568 54.5219 19.6107 54.5219 19.6107C54.7445 19.3704 54.8089 19.0131 54.8265 18.972Z" fill="black"/>
<path fill-rule="evenodd" clip-rule="evenodd" d="M21.9839 83.5553C21.9663 83.5553 21.9487 83.5494 21.9194 83.5494C21.8784 83.3795 21.8081 83.2154 21.8081 83.0689C21.8081 82.94 21.8257 82.8639 21.9136 82.6881C22.7222 81.0884 24.1987 81.897 24.3101 83.8189C24.3921 85.1079 23.396 86.3619 22.5581 85.6939C22.0659 85.3013 21.9956 84.1998 21.9604 83.6724C21.9604 83.649 21.978 83.5728 21.9839 83.5553ZM22.4702 83.3033C22.5405 83.3502 22.6167 83.3971 22.6811 83.4498C22.6811 83.4557 22.8159 83.8014 22.9741 84.1353C22.98 84.0592 22.9917 83.9771 22.9976 83.8775C23.0327 83.485 23.0151 83.1744 22.8687 82.8639C22.7749 82.9225 22.6284 83.0631 22.4702 83.3033Z" fill="black"/>
<path fill-rule="evenodd" clip-rule="evenodd" d="M134.05 106.6C134.05 106.6 134.05 106.559 134.044 106.535C134.202 106.459 134.349 106.354 134.507 106.283C134.507 106.283 134.7 106.318 134.888 106.377C136.604 106.898 136.065 108.492 134.19 108.937C132.937 109.236 131.53 108.475 132.046 107.537C132.345 106.98 133.417 106.717 133.933 106.594C133.962 106.588 134.05 106.6 134.05 106.6ZM134.378 107.033C134.349 107.109 134.366 107.215 134.272 107.268C134.267 107.268 133.95 107.461 133.646 107.672C133.728 107.666 133.81 107.66 133.903 107.654C134.296 107.619 134.601 107.549 134.882 107.35C134.806 107.268 134.642 107.15 134.378 107.033Z" fill="black"/>
<path fill-rule="evenodd" clip-rule="evenodd" d="M93.8486 11.403C93.4384 11.5436 92.9814 11.6843 92.9755 11.6843C92.788 11.737 92.5595 11.7018 92.4716 11.5495C92.3251 11.2975 92.5419 11.11 92.6122 11.0456C92.9462 10.7116 93.1865 10.5182 93.3681 10.36C93.2861 10.0554 93.2216 9.79168 93.1455 9.56903C93.0693 9.34052 93.163 9.12372 93.2685 9.05927C93.374 8.99482 93.6201 9.02411 93.7783 9.18232C93.7958 9.19404 94.0947 9.49287 94.3466 9.77997C94.7861 9.59833 95.1787 9.53973 95.3369 9.49872C95.4541 9.46942 95.7646 9.46356 95.8584 9.62762C95.9462 9.79168 95.8056 10.0026 95.7177 10.1315C95.7177 10.1374 95.4189 10.4655 95.3955 10.4948C95.3603 10.5358 95.2373 10.7057 94.9502 10.9049C95.0205 11.1686 95.0263 11.3854 95.0615 11.5612C95.0732 11.6022 95.1084 11.9831 94.9443 12.0827C94.8037 12.1589 94.581 12.0592 94.4345 11.9479C94.4287 11.9479 94.4287 11.9421 94.4228 11.9362C94.2998 11.8307 94.0654 11.6725 93.8486 11.403Z" fill="black"/>
<path fill-rule="evenodd" clip-rule="evenodd" d="M76.98 112.014C77.2319 111.844 77.6655 112.202 77.7476 112.249C78.2163 112.542 78.4331 112.799 78.6206 113.227C78.6909 113.397 78.9253 114.018 78.9487 114.083C79.0191 114.27 79.0366 114.499 78.8726 114.61C78.7202 114.715 78.5093 114.598 78.3452 114.522C78.3335 114.516 77.7534 114.053 77.6362 113.948C77.2847 113.637 77.1089 113.35 76.9683 112.817C76.9448 112.723 76.7339 112.178 76.98 112.014Z" fill="black"/>
<path fill-rule="evenodd" clip-rule="evenodd" d="M119.339 92.4898C119.116 92.1382 118.876 91.6929 118.495 91.0308C118.331 90.732 118.36 90.4976 118.489 90.4039C118.618 90.3101 118.841 90.3453 119.081 90.5738C119.532 91.0015 119.86 91.3062 120.112 91.5464C120.206 91.4644 120.311 91.3824 120.44 91.2945C120.528 91.23 120.61 91.1539 120.716 91.107C120.897 91.0132 121.096 90.9078 121.237 91.0132C121.337 91.0836 121.342 91.3414 121.307 91.5406C121.29 91.6519 121.249 91.7574 121.214 91.8629C121.137 92.0972 121.055 92.2906 120.962 92.4605C121.061 92.5835 121.161 92.7183 121.284 92.8882C121.424 93.0816 121.729 93.6265 121.923 93.9253C121.934 93.9371 121.946 93.9488 121.952 93.9664C122.051 94.1832 122.069 94.4175 121.981 94.5054C121.899 94.5933 121.671 94.6754 121.442 94.5054C121.442 94.5054 120.663 94.0484 120.212 93.5855C120.153 93.5211 120.094 93.4625 120.042 93.4039C119.901 93.4976 119.743 93.5972 119.573 93.7027C119.555 93.7144 119.339 93.8492 119.339 93.8492C119.163 93.9429 118.94 93.9722 118.817 93.8492C118.694 93.7261 118.676 93.5504 118.817 93.3218C118.823 93.3218 119.262 92.6187 119.298 92.5543C119.315 92.5308 119.327 92.5132 119.339 92.4898Z" fill="black"/>
<path fill-rule="evenodd" clip-rule="evenodd" d="M21.0887 23.4674C21.2762 23.7487 20.9949 24.3815 20.6433 24.5866C19.782 25.0963 14.1395 28.8873 11.7663 33.1178C10.2781 35.7605 11.3738 36.7506 11.4851 36.8737C12.7976 38.3151 16.6706 38.8307 20.3327 38.7077C23.7428 38.5905 25.9636 38.1628 27.8796 38.5261C31.5417 39.2292 31.0378 42.9851 30.8737 44.2156C30.4811 47.1511 29.2507 49.8757 29.696 51.5339C30.1823 53.3562 32.6842 55.1726 38.737 58.2781C39.2585 58.5476 39.1882 59.0457 39.0827 59.2625C38.8483 59.7312 38.2799 59.6433 38.0924 59.614C38.0397 59.6023 36.5866 58.9167 36.4577 58.8523C28.1784 54.9089 26.9421 52.864 27.7154 48.5457C28.0729 46.5477 29.3151 41.9187 28.026 41.2039C26.4732 40.3367 20.9245 42.1297 14.7247 40.9813C13.2892 40.7117 9.20525 39.8504 8.59587 36.4754C7.81657 32.1511 13.8694 26.6668 19.6994 23.4154C20.0451 23.2279 20.8419 23.0755 21.088 23.4681L21.0887 23.4674Z" fill="black"/>
<path fill-rule="evenodd" clip-rule="evenodd" d="M31.8926 19.0259C31.002 20.1744 29.6485 21.2349 28.0078 21.8443C25.3593 22.8346 23.127 21.9556 23.1387 20.1627C23.1563 16.1901 26.6016 15.0474 27.9023 14.6022C27.668 14.028 27.2578 13.0904 26.8184 12.7741C26.7363 12.7155 26.4551 12.4401 26.1621 12.235C25.5645 11.8073 25.3418 11.5788 24.5391 10.9284C24.504 10.8991 23.7832 10.3542 23.9766 9.86198C24.1758 9.37565 24.9493 9.45768 25.125 9.4694C26.5078 9.59245 27.0235 9.75065 27.6973 10.1257C28.6992 10.6882 29.0449 11.3737 29.2442 11.9187C29.4668 12.4929 29.5196 13.3484 29.5371 13.9635C30.416 13.7526 31.1719 13.8053 31.7579 14.0631C31.6583 13.5006 31.7755 12.903 32.1739 12.3815C32.6661 11.7311 33.3927 11.4909 34.0372 11.5671C34.084 11.5729 34.084 11.5671 34.1309 11.5729C35.9708 11.4089 37.0664 13.4889 35.9883 15.0358C35.9121 15.1413 35.3203 15.9499 34.2598 16.0202C33.8145 16.0495 33.4043 15.9557 33.0469 15.7799C33.0645 15.9206 33.0762 16.0729 33.0703 16.2252C33.0586 16.6647 32.9414 17.1452 32.7305 17.6315C34.2422 17.9596 35.1972 18.5221 35.666 18.8034C35.9648 18.985 36.8203 19.7233 37.2362 20.3679C37.8925 21.3991 38.0507 22.1432 38.0917 22.2252C38.2206 22.5182 38.0741 23.1334 37.7987 23.2682C37.1483 23.6081 35.6601 22.2077 34.9921 21.6568C34.5702 21.3053 34.5585 21.317 34.1425 20.9537C33.9081 20.7545 32.9883 19.7056 31.8926 19.0259ZM30.8906 15.9498C30.9024 15.944 30.9082 15.9264 30.9199 15.9205C30.9024 15.9322 30.8965 15.944 30.8906 15.9498ZM30.8731 15.9733H30.8789L30.8672 15.9615C30.8203 15.8854 30.4395 15.7154 29.625 15.8502C28.4766 16.0494 27.4453 16.6764 27.3164 16.7526V16.7584C26.9941 17.0162 27 17.0162 26.7129 17.3151C25.6875 18.399 25.3359 19.4068 25.418 19.7291L25.4356 19.7056L25.4473 19.6822C26.9181 19.899 29.4258 18.1822 30.3047 17.0279C30.9082 16.2369 30.7852 16.0436 30.8437 15.9908C30.8437 15.985 30.8496 15.985 30.8555 15.985V15.9732C30.8555 15.9674 30.8672 15.9733 30.8731 15.9733ZM30.8555 15.985C30.8555 15.9908 30.8672 15.9967 30.8731 15.9967C30.8789 15.9967 30.8789 15.9791 30.8848 15.9733C30.8731 15.9791 30.8731 15.9791 30.8731 15.9733L30.8555 15.985ZM25.4414 19.776C25.4532 19.7701 25.459 19.7643 25.4707 19.7584C25.4766 19.7526 25.459 19.7291 25.4473 19.735C25.4414 19.7408 25.4356 19.7408 25.4239 19.7467C25.4297 19.7584 25.4356 19.7701 25.4414 19.776Z" fill="black"/>
<path fill-rule="evenodd" clip-rule="evenodd" d="M137.138 65.151C137.202 65.444 136.845 65.5729 136.616 65.6432C136.522 65.6725 127.153 67.9519 123.796 68.737C121.757 69.2175 114.163 70.9284 111.609 71.4734C106.476 72.5749 89.0849 76.1667 89.0737 76.1667C88.8569 76.1902 88.646 76.0144 88.6284 75.8855C88.6049 75.6277 88.8745 75.4577 89.0854 75.405C89.0854 75.405 107.964 70.9226 114.082 69.569C121.371 67.9576 126.017 67.0143 127.054 66.8034C129.679 66.2702 136.412 64.9284 136.453 64.9225C136.693 64.8873 137.085 64.9166 137.138 65.151L137.138 65.151Z" fill="black"/>
<path fill-rule="evenodd" clip-rule="evenodd" d="M44.2261 93.7791C44.232 93.7732 44.4956 93.2225 45.1578 93.0467C45.5445 92.9412 45.8609 93.0232 45.9429 93.0467C46.9624 93.3221 58.5167 96.4275 58.6929 96.4919C59.6245 96.8318 60.0874 97.904 59.6656 98.8357C59.4898 99.2048 57.6089 103.33 57.5093 103.506C57.0816 104.232 56.2027 104.56 55.4176 104.302C49.0718 102.205 47.5074 101.666 42.8438 100.025C41.8301 99.6735 41.4786 98.525 41.9532 97.7048L44.2261 93.7791Z" fill="black"/>
</svg>
