<svg width="16" height="16" viewBox="0 0 16 16" fill="none" xmlns="http://www.w3.org/2000/svg">
<path d="M4.00007 4.66716H6.00007V6.00028H4.00007V4.66716ZM7.33314 6.00028H12.0001V4.66716H7.33314V6.00028ZM4.00007 8.66722H6.00007V7.3341L4.00007 7.33347V8.66722ZM7.33314 8.66722H12.0001V7.3341H7.33314V8.66722ZM4.00007 11.3335H6.00007V10.0004H4.00007V11.3335ZM7.33314 11.3335H12.0001V10.0004H7.33314V11.3335ZM14.6669 5.40922V10.603C14.6669 12.6062 13.1813 14.3092 11.2111 14.5648C10.1474 14.7017 9.06687 14.7711 7.99994 14.7711C6.92806 14.7711 5.84621 14.7017 4.78487 14.5642C2.81741 14.3092 1.33301 12.6055 1.33301 10.6005V5.41166C1.33301 3.42219 2.80421 1.72046 4.75554 1.45232C6.87981 1.16044 9.06181 1.15795 11.185 1.4442C13.1699 1.71232 14.6669 3.41673 14.6669 5.40913V5.40922ZM13.3331 5.40922C13.3331 4.0811 12.3325 2.94428 11.0069 2.76548C10.0138 2.63111 9.00194 2.56298 7.99994 2.56298C6.97931 2.56298 5.94941 2.6336 4.93741 2.77298C3.64303 2.9511 2.66687 4.08486 2.66687 5.41164V10.6011C2.66687 11.938 3.65125 13.073 4.95674 13.2418C6.96167 13.5037 9.02234 13.5037 11.0405 13.2424C12.3474 13.0737 13.333 11.9387 13.333 10.6037L13.3331 5.40922Z" fill="black"/>
</svg>
