<svg width="20" height="20" viewBox="0 0 20 20" fill="none" xmlns="http://www.w3.org/2000/svg">
<g opacity="0.4">
<path d="M5.01567 13.1876C6.39067 14.5626 8.19534 15.2499 10 15.2499C13.6837 15.2382 15.2032 12.8867 17.621 10.5546C17.9257 10.2499 17.9257 9.75377 17.621 9.44909L14.9842 6.81226C12.2342 4.06226 7.76534 4.06226 5.01534 6.81226L2.37851 9.44909C2.07382 9.75377 2.07382 10.2499 2.37851 10.5546L5.01567 13.1876ZM6.12114 7.91789C8.26181 5.77722 11.7383 5.77722 13.879 7.91789L15.961 9.99989L13.879 12.0819C11.7383 14.2226 8.26181 14.2226 6.12114 12.0819L4.03914 9.99989L6.12114 7.91789Z" fill="black"/>
<path d="M9.99999 12.5899C11.4258 12.5899 12.5898 11.4297 12.5898 10.0001C12.4492 6.56639 7.55466 6.56639 7.41016 10.0001C7.41016 11.4258 8.57031 12.5899 9.99999 12.5899ZM9.99999 8.97272C10.5664 8.97272 11.0273 9.43365 11.0273 10.0001C10.9727 11.3634 9.03117 11.3634 8.97267 10.0001C8.97267 9.43367 9.43361 8.97272 10 8.97272H9.99999Z" fill="black"/>
</g>
</svg>
