<svg width="12" height="14" viewBox="0 0 12 14" fill="none" xmlns="http://www.w3.org/2000/svg">
<path fill-rule="evenodd" clip-rule="evenodd" d="M9.49998 6.56255H9.88278C10.6079 6.56255 11.1953 7.15044 11.1953 7.87505V11.8125C11.1953 12.5372 10.6079 13.125 9.88278 13.125H2.06308C1.33738 13.125 0.75 12.5372 0.75 11.8125V7.87505C0.75 7.15044 1.33735 6.56255 2.06308 6.56255H2.50058V4.37505C2.50058 3.447 2.86863 2.55668 3.52543 1.89985C4.18168 1.2436 5.07196 0.875 6.00005 0.875H6.00114C6.92919 0.875 7.81892 1.2436 8.47576 1.89985C9.13146 2.5561 9.50006 3.44591 9.50006 4.37446L9.49998 6.56255ZM9.88278 7.43755H2.06308C1.82081 7.43755 1.62504 7.63333 1.62504 7.87505V11.8125C1.62504 12.0543 1.82081 12.25 2.06308 12.25H9.88278C10.1245 12.25 10.3203 12.0543 10.3203 11.8125V7.87505C10.3203 7.63333 10.1245 7.43755 9.88278 7.43755ZM8.62547 6.56255V4.37446C8.62547 3.67829 8.34875 3.01051 7.85656 2.51888C7.36437 2.02615 6.69664 1.74998 6.00098 1.74998H5.99989C5.30371 1.74998 4.63594 2.02615 4.14372 2.51888C3.65153 3.01107 3.37482 3.6788 3.37482 4.37505V6.56255H8.62547ZM5.99988 8.33226C6.83988 8.33226 7.52122 9.01367 7.52122 9.8536C7.52122 10.693 6.83981 11.3749 5.99988 11.3749C5.16043 11.3749 4.47855 10.693 4.47855 9.8536C4.47855 9.0136 5.1605 8.33226 5.99988 8.33226ZM5.99988 9.20726C5.64278 9.20726 5.35403 9.49656 5.35403 9.85367C5.35403 10.2108 5.64278 10.5001 5.99988 10.5001C6.35644 10.5001 6.64629 10.2108 6.64629 9.85367C6.64629 9.49656 6.35644 9.20726 5.99988 9.20726Z" fill="black"/>
</svg>
