<svg width="16" height="16" viewBox="0 0 16 16" fill="none" xmlns="http://www.w3.org/2000/svg">
<g clip-path="url(#clip0_11188_5216)">
<path d="M12.7812 1.625H3.21869C2.36525 1.62568 1.54696 1.965 0.943493 2.56849C0.340027 3.17199 0.00068 3.99036 0 4.84369V11.1577C0.00109375 12.0109 0.340573 12.8288 0.944013 13.432C1.54751 14.0351 2.36561 14.3742 3.21881 14.3749H12.7813C13.6348 14.3742 14.4531 14.0349 15.0565 13.4314C15.66 12.8279 15.9994 12.0095 16 11.1562V4.84219C15.9989 3.98901 15.6595 3.17112 15.056 2.56792C14.4525 1.9648 13.6344 1.62568 12.7812 1.625ZM14.5752 11.1585C14.5745 11.634 14.3853 12.09 14.049 12.4262C13.7127 12.7625 13.2567 12.9516 12.7812 12.9522H3.21863C2.743 12.9516 2.28701 12.7624 1.95065 12.4261C1.61435 12.0898 1.42513 11.6338 1.42456 11.1581V4.84215C1.42508 4.36647 1.61425 3.91043 1.9506 3.57412C2.28691 3.23776 2.74295 3.0486 3.21863 3.04808H12.7812C13.2568 3.0486 13.7129 3.23777 14.0492 3.57412C14.3855 3.91043 14.5747 4.36647 14.5752 4.84215V11.1585Z" fill="white"/>
<path d="M5.64941 11.1251L11.0622 8.00007L5.64941 4.875V11.1251Z" fill="white"/>
</g>
<defs>
<clipPath id="clip0_11188_5216">
<rect width="16" height="16" fill="white"/>
</clipPath>
</defs>
</svg>
