<svg width="9" height="11" viewBox="0 0 9 11" fill="none" xmlns="http://www.w3.org/2000/svg">
<path d="M4.5 10.5L4.27903 10.721L4.5 10.9419L4.72097 10.721L4.5 10.5ZM4.8125 1.125C4.8125 0.952411 4.67259 0.8125 4.5 0.8125C4.32741 0.8125 4.1875 0.952411 4.1875 1.125L4.5 1.125L4.8125 1.125ZM0.75 6.75L0.529029 6.97097L4.27903 10.721L4.5 10.5L4.72097 10.279L0.970971 6.52903L0.75 6.75ZM4.5 10.5L4.72097 10.721L8.47097 6.97097L8.25 6.75L8.02903 6.52903L4.27903 10.279L4.5 10.5ZM4.5 10.5L4.8125 10.5L4.8125 1.125L4.5 1.125L4.1875 1.125L4.1875 10.5L4.5 10.5Z" fill="#333333"/>
</svg>
