<svg width="12" height="12" viewBox="0 0 12 12" fill="none" xmlns="http://www.w3.org/2000/svg">
<g clip-path="url(#clip0_117_3199)">
<path d="M6 0.875C3.175 0.875 0.875 3.175 0.875 6C0.875 8.825 3.175 11.125 6 11.125C8.825 11.125 11.125 8.825 11.125 6C11.125 3.175 8.825 0.875 6 0.875ZM6 10.125C3.725 10.125 1.875 8.275 1.875 6C1.875 3.725 3.725 1.875 6 1.875C8.275 1.875 10.125 3.725 10.125 6C10.125 8.275 8.275 10.125 6 10.125Z" fill="black"/>
<path d="M5.9999 3C5.6699 3 5.3999 3.27 5.3999 3.6V6.7275C5.3999 7.0575 5.6699 7.3275 5.9999 7.3275C6.3299 7.3275 6.5999 7.0575 6.5999 6.7275V3.6C6.5999 3.27 6.3299 3 5.9999 3Z" fill="black"/>
<path d="M6.5999 8.3998C6.5999 8.73117 6.33127 8.9998 5.9999 8.9998C5.66853 8.9998 5.3999 8.73117 5.3999 8.3998C5.3999 8.06843 5.66853 7.7998 5.9999 7.7998C6.33127 7.7998 6.5999 8.06843 6.5999 8.3998Z" fill="black"/>
</g>
<defs>
<clipPath id="clip0_117_3199">
<rect width="12" height="12" fill="white"/>
</clipPath>
</defs>
</svg>
