<svg width="16" height="16" viewBox="0 0 16 16" fill="none" xmlns="http://www.w3.org/2000/svg">
<g clip-path="url(#clip0_117_3182)">
<path d="M16 8C16 3.58172 12.4183 0 8 0C3.58172 0 0 3.58172 0 8C0 12.4183 3.58172 16 8 16C12.4183 16 16 12.4183 16 8Z" fill="#E0E0E0"/>
<path fill-rule="evenodd" clip-rule="evenodd" d="M11.7783 5.74978L7.01386 11.0435L4.23438 8.26408L4.76471 7.73375L6.98523 9.95426L11.2208 5.24805L11.7783 5.74978Z" fill="white"/>
<path d="M16 8C16 3.58172 12.4183 0 8 0C3.58172 0 0 3.58172 0 8C0 12.4183 3.58172 16 8 16C12.4183 16 16 12.4183 16 8Z" fill="#E0E0E0"/>
<path d="M4 8L12 8" stroke="white" stroke-linecap="round"/>
</g>
<defs>
<clipPath id="clip0_117_3182">
<rect width="16" height="16" fill="white"/>
</clipPath>
</defs>
</svg>
