<?xml version="1.0" encoding="UTF-8"?>
<svg width="1200pt" height="1200pt" version="1.1" viewBox="0 0 1200 1200" xmlns="http://www.w3.org/2000/svg">
 <path d="m132 935.63v-495.84c-32.859-14.156-59.438-31.922-73.734-63.609-9.6562-21.469-11.484-45.094-6.1406-69.984l37.875-175.74c11.344-52.734 64.031-82.641 116.02-82.641h220.08c22.125 0 40.031 17.906 40.031 40.031v253.36c9.75 10.078 24.797 18.562 42.562 25.312 29.672 11.25 65.391 16.781 98.297 16.781 28.172 0 57.844-6.1875 82.312-16.969 18.234-7.9219 33.891-18.047 44.859-29.578v-208.92h-95.906c-22.078 0-39.984-17.906-39.984-40.031 0-22.078 17.906-40.031 39.984-40.031h356.34c51.562 0 104.53 29.812 115.88 82.125l37.312 171.74c11.016 50.672-8.5312 95.578-54.562 121.64-8.0625 4.5469-16.594 8.7656-25.453 12.562v499.74h44.391c22.125 0 40.031 17.906 40.031 40.031v136.55c0 22.078-17.906 40.031-40.031 40.031h-1024.4c-22.125 0-40.031-17.906-40.031-40.031v-136.55c0-22.078 17.906-40.031 40.031-40.031h44.203zm592.78-152.06h135.71v-129.79h-135.71zm175.69 80.016c22.078 0 40.031-17.906 40.031-40.031v-209.81c0-22.078-17.906-40.031-40.031-40.031h-215.72c-22.125 0-40.031 17.906-40.031 40.031v209.81c0 22.078 17.906 40.031 40.031 40.031zm-405.61 72v-281.81h-135.66v281.81zm-215.72 0v-321.84c0-22.078 17.906-40.031 40.031-40.031h215.72c22.078 0 40.031 17.906 40.031 40.031v321.84h412.82v-478.45c-66.75 8.1094-159.19-8.25-213.61-49.359-45.094 36.141-108.89 55.5-167.16 55.5-59.391 0-132.66-14.906-180.84-51.328-54.562 41.203-147.19 57.469-214.08 49.266v474.37h67.125zm-151.31 136.55h944.34v-56.531l-944.34 0.046875v56.531zm215.72-705.66c17.766-6.75 32.859-15.234 42.562-25.312v-213.32h-180.1c-10.922 0-21.141 2.7656-28.641 7.7344-4.875 3.2344-8.2969 7.1719-9.2344 11.438l-37.828 175.74c-3.6094 16.781 0.65625 26.438 15.75 35.062 29.156 16.594 65.484 25.453 99.188 25.453 32.906 0 68.625-5.5312 98.297-16.781zm470.68-29.391c9.75 10.078 24.797 18.562 42.562 25.312 42.703 16.172 104.72 22.688 150.14 10.219 17.25-4.7344 31.406-9.8906 46.875-18.656 15.422-8.7656 19.5-18.281 15.797-35.344l-37.312-171.74c-2.7656-12.844-23.578-18.984-37.734-18.984h-180.37v209.26z" fill-rule="evenodd"/>
</svg>
