<svg width="23" height="23" viewBox="0 0 23 23" fill="none" xmlns="http://www.w3.org/2000/svg">
<path fill-rule="evenodd" clip-rule="evenodd" d="M17.4548 5.50204C17.5212 5.50204 17.6009 5.557 17.6142 5.65317C17.6185 5.68428 17.8312 7.17459 18.117 9.17732L18.1209 9.20457C18.7187 13.3937 19.6324 19.7956 19.6324 19.8049L13.9097 21.0827L3.354 19.0355C3.354 19.0355 4.70832 8.18124 4.76143 7.79657C4.82782 7.28815 4.8411 7.27441 5.35893 7.10956C5.38666 7.10001 5.48521 7.06879 5.64111 7.0194C5.93305 6.92694 6.42628 6.77071 7.03193 6.57372C7.39038 5.00742 8.53228 1.91602 10.9223 1.91602C11.2276 1.91602 11.5994 2.09463 11.8783 2.47934H11.9712C12.9936 2.47934 13.5778 3.38615 13.9097 4.38914C14.0658 4.33945 14.1919 4.29819 14.2846 4.26789C14.397 4.23115 14.4601 4.21052 14.4674 4.21052C14.5471 4.18304 14.7595 4.15556 14.8657 4.26548C14.9852 4.37539 15.9678 5.39212 15.9678 5.39212C15.9678 5.39212 17.3885 5.50204 17.4548 5.50204ZM12.4359 4.84254C12.7546 4.73262 13.0599 4.63644 13.3255 4.55401C13.0998 3.83955 12.7546 3.22127 12.2235 3.13883C12.3563 3.53728 12.4359 4.03191 12.4359 4.63644V4.84254ZM11.5596 3.27624C11.7056 3.66094 11.7986 4.19678 11.7986 4.93872V5.04863C11.4657 5.15824 11.1199 5.26785 10.766 5.37999C10.4989 5.46466 10.2271 5.55077 9.95299 5.63943C10.3115 4.22426 10.9887 3.53729 11.5596 3.27624ZM11.1612 2.68542C11.0683 2.61672 10.9621 2.57551 10.8559 2.57551C9.14304 2.57551 8.17376 4.91123 7.77546 6.34015C7.99327 6.26931 8.21695 6.19847 8.44505 6.12619C8.70363 6.04431 8.96795 5.96059 9.23602 5.87302C9.58119 3.99068 10.3911 3.05639 11.1612 2.68542Z" fill="#95BF47"/>
<path d="M17.4549 5.48886C17.3886 5.48886 15.9679 5.37894 15.9679 5.37894C15.9679 5.37894 14.9853 4.36221 14.8658 4.25229C14.826 4.21107 14.7728 4.18359 14.7198 4.18359L13.9231 21.0833L19.6457 19.8055C19.6457 19.8055 17.6408 5.74991 17.6275 5.65373C17.601 5.55755 17.5213 5.50259 17.4549 5.48886Z" fill="#5E8E3E"/>
<path d="M11.9711 8.75964L11.2674 10.9305C11.2674 10.9305 10.6434 10.587 9.88654 10.587C8.77121 10.587 8.71808 11.3152 8.71808 11.4938C8.71808 12.4831 11.2143 12.8678 11.2143 15.1898C11.2143 17.0171 10.0989 18.1987 8.58531 18.1987C6.76625 18.1987 5.8501 17.0308 5.8501 17.0308L6.34138 15.3683C6.34138 15.3683 7.29737 16.2202 8.09404 16.2202C8.62516 16.2202 8.83757 15.7943 8.83757 15.4783C8.83757 14.1868 6.79281 14.1318 6.79281 12.0022C6.79281 10.2161 8.02762 8.48485 10.5371 8.48485C11.4931 8.47111 11.9711 8.75964 11.9711 8.75964Z" fill="white"/>
</svg>
