<?xml version="1.0" encoding="UTF-8"?>
<svg width="1200pt" height="1200pt" version="1.1" viewBox="0 0 1200 1200" xmlns="http://www.w3.org/2000/svg">
 <path d="m721.92 277.97c-27.891 27.891-43.266 65.016-43.266 104.48s15.375 76.547 43.266 104.48c28.781 28.781 66.609 43.172 104.44 43.172s75.656-14.391 104.48-43.219c27.891-27.891 43.266-65.016 43.266-104.44 0-39.469-15.375-76.547-43.266-104.44-57.609-57.609-151.31-57.609-208.92 0zm159 159c-30.094 30.094-79.031 30.094-109.08 0-14.578-14.578-22.594-33.938-22.594-54.562s8.0156-39.984 22.594-54.562 33.938-22.594 54.562-22.594 39.984 8.0156 54.562 22.594 22.594 33.938 22.594 54.516c0 20.625-8.0156 39.984-22.594 54.562z"/>
 <path d="m1161.4 107.39c-0.89062-9.2812-2.4375-18.75-4.7344-28.922l-1.2656-5.5781c-3-13.219-13.359-23.531-26.578-26.578l-5.5781-1.2656c-10.172-2.3438-19.641-3.8906-28.922-4.7344-91.828-8.5781-181.69-0.32812-267 24.562-175.74 51.281-293.48 143.86-373.5 301.78-51.188-21.984-109.78-16.078-153.28 15.703-87.094 63.656-115.83 200.68-105.66 308.21 1.4062 14.859 12 27.234 26.484 30.891 2.8594 0.75 5.7656 1.0781 8.625 1.0781 11.625 0 22.734-5.7188 29.344-15.703 11.203-16.828 38.297-36.797 69-50.906 14.672-6.75 30.422-10.828 47.016-12.281 0.84375 1.0781 1.7344 2.1094 2.7188 3.0938l176.86 176.86c0.9375 0.9375 2.0625 1.6875 3.0938 2.5312-1.4531 16.641-5.5312 32.484-12.281 47.203-14.062 30.703-34.031 57.797-50.906 69-12.422 8.2969-18.281 23.484-14.625 38.016 3.6562 14.484 16.031 25.125 30.891 26.484 13.594 1.2656 27.656 1.9219 42 1.9219 99 0 210.61-31.547 266.21-107.62 31.734-43.5 37.688-102.09 15.656-153.28 157.87-80.016 250.45-197.76 301.78-373.5 24.891-85.312 33.141-175.13 24.562-267zm-862.36 484.36c-11.672 5.3438-22.875 11.344-33.375 17.766 6.8906-68.719 31.734-137.39 76.594-170.21 23.016-16.828 54.422-19.875 82.5-8.2969-17.297 42.938-32.484 90.094-45.844 141.61-28.078 1.2656-54.938 7.6406-79.875 19.078zm463.4 267.74c-32.812 44.906-101.48 69.703-170.21 76.594 6.4219-10.5 12.422-21.703 17.766-33.375 11.438-24.938 17.812-51.75 19.078-79.828 51.562-13.359 98.672-28.547 141.61-45.844 11.578 28.031 8.5312 59.484-8.2969 82.5zm306.66-504.89c-64.922 222.52-199.69 337.26-478.08 405.14l-149.02-149.02c67.875-278.39 182.63-413.16 405.14-478.08 76.734-22.406 157.64-29.812 240.66-22.031 0.98438 0.09375 2.0156 0.1875 3 0.32812 0.14062 1.0312 0.23438 2.0625 0.32812 3.0469 7.7812 82.969 0.375 163.92-22.031 240.61z"/>
 <path d="m411 866.72-199.69 240.14c-12.469 15-10.406 37.219 4.5469 49.688 6.6094 5.4844 14.578 8.1562 22.547 8.1562 10.125 0 20.156-4.3125 27.141-12.75l199.69-240.14c12.469-15 10.406-37.219-4.5469-49.688-15-12.469-37.219-10.406-49.688 4.5469z"/>
 <path d="m335.26 743.63c-12.609-14.859-34.875-16.688-49.734-4.0781l-237.74 201.71c-14.859 12.609-16.688 34.875-4.0781 49.734 6.9844 8.25 16.922 12.469 26.906 12.469 8.0625 0 16.172-2.7656 22.828-8.3906l237.74-201.71c14.859-12.609 16.688-34.875 4.0781-49.734z"/>
 <path d="m278.95 971.76c13.734-13.828 13.594-36.188-0.23438-49.922s-36.188-13.641-49.922 0.23438l-72.562 73.266c-13.734 13.828-13.594 36.188 0.23438 49.922 6.8906 6.7969 15.844 10.219 24.844 10.219 9.0938 0 18.188-3.4688 25.078-10.453z"/>
 <path d="m312.24 888.1c6.8906 6.7969 15.844 10.219 24.844 10.219 9.0938 0 18.188-3.4688 25.078-10.453l72.562-73.266c13.734-13.828 13.594-36.188-0.23438-49.922s-36.188-13.594-49.922 0.23438l-72.562 73.266c-13.734 13.828-13.594 36.188 0.23438 49.922z"/>
</svg>
