<?xml version="1.0" encoding="UTF-8"?>
<svg width="1200pt" height="1200pt" version="1.1" viewBox="0 0 1200 1200" xmlns="http://www.w3.org/2000/svg">
 <path d="m971.21 228.79c-204.66-204.71-537.74-204.71-742.4 0-204.71 204.66-204.71 537.74 0 742.4 102.33 102.33 236.76 153.52 371.21 153.52 134.45 0 268.87-51.188 371.21-153.52 204.66-204.66 204.66-537.74 0-742.45zm-584.72 210.74c-83.438 72.141-172.31 103.36-234.14 116.86 8.5312-88.594 43.5-174.89 104.3-246.66l129.84 129.84zm-76.828-182.9c71.766-60.75 158.11-95.719 246.66-104.3-22.969 107.62-75 186.14-116.53 234.37l-130.08-130.08zm322.97-104.86c92.391 6.6562 182.95 41.531 257.72 104.86l-290.34 290.34-107.06-107.06c50.016-57 114.84-153.79 139.69-288.1zm74.859 608.72c-91.5 103.92-127.03 216.14-140.53 287.72-92.25-6.75-182.63-41.672-257.29-104.86l290.34-290.34zm53.016 53.016 129.84 129.84c-71.766 60.797-158.11 95.719-246.66 104.3 13.5-61.828 44.719-150.71 116.86-234.14zm52.781-53.25c48.234-41.578 126.71-93.609 234.37-116.53-8.5312 88.594-43.5 174.84-104.3 246.66l-130.08-130.08zm234.94-192.89c-134.34 24.844-231.1 89.672-288.14 139.69l-107.06-107.06 290.34-290.34c63.281 74.766 98.203 165.32 104.86 257.72zm-896.44 65.719c71.531-13.5 183.84-49.031 287.72-140.53l107.48 107.48-290.34 290.34c-63.188-74.672-98.109-165.05-104.86-257.29z"/>
</svg>
