<svg width="150" height="150" viewBox="0 0 150 150" fill="none" xmlns="http://www.w3.org/2000/svg">
<path fill-rule="evenodd" clip-rule="evenodd" d="M113.496 99.2925C113.104 99.6382 112.594 99.8667 112.002 99.9253C111.774 99.9487 106.125 100.113 101.397 100.224C101.555 101.97 101.584 103.757 101.49 105.498L102.68 105.544C103.008 105.556 104.174 105.597 106.805 105.709L111.791 105.931C111.797 105.931 112.916 105.843 113.76 106.781C115.213 108.38 114.193 111 112.002 111.216C111.75 111.24 105.487 111.421 100.606 111.533C99.9084 114.257 98.8185 116.525 97.342 117.861C96.6037 118.529 95.7014 118.968 94.7288 119.033C94.635 119.056 94.5295 119.05 94.3362 119.056C89.1917 119.214 89.1917 119.249 88.7053 119.203C87.5042 119.08 86.4202 118.294 85.4943 117.064C85.3889 117.082 85.2834 117.058 85.0666 117.052C75.5568 116.689 70.3128 111.574 69.3341 104.941C59.4552 104.941 51.6566 104.408 43.3478 94.9507C43.1779 105.281 42.9552 117.099 42.9552 117.116C42.9435 117.567 42.5158 117.866 42.217 117.854C42.0471 117.848 41.5256 117.737 41.4728 117.116C41.467 117.086 41.2092 103.047 41.0334 92.2019C33.8966 83.8347 29.1623 81.4089 22.2959 80.6355C22.0849 89.5769 20.2626 97.7155 16.8935 99.5205C16.1494 99.919 13.8466 100.763 11.7608 97.2647C7.43064 89.999 6.99714 69.7609 10.9229 59.6122C11.4092 58.3583 12.2354 56.741 12.9912 56.0438C13.3604 55.7039 14.128 55.0243 15.2061 55.0653C15.5342 55.077 16.5947 55.1414 17.421 56.7176C17.4503 56.7645 17.4855 56.8876 17.4562 56.9462C17.421 57.0048 17.3448 56.9462 17.3097 56.9286C17.2101 56.8758 15.9034 55.5575 14.8429 56.577C14.7316 56.6825 14.5265 56.8407 14.2218 57.3153C14.1574 57.409 13.0792 58.5985 12.1124 62.4774C13.0792 60.1805 14.2863 58.8212 15.5929 58.8212C17.0461 58.8212 18.3762 60.5028 19.3898 63.2743C19.3078 62.8934 19.2258 62.5184 19.1379 62.1493C19.1144 62.0614 19.0441 61.0653 18.7687 59.7C18.7453 59.5946 18.757 59.5008 18.7922 59.4891C18.8332 59.4774 18.9269 59.536 18.9914 59.6122C19.05 59.6942 19.4601 60.4559 19.5012 60.5321C19.5422 60.62 19.7883 61.0829 20.0578 61.6512C20.0812 61.7098 20.1222 61.6922 20.4211 62.7997C21.2062 65.6708 21.7512 68.993 22.0499 72.4442C29.0753 73.1414 34.6712 74.9695 40.8887 80.5887C40.8711 75.7254 40.9297 65.8349 40.9766 62.9636C41.0469 58.4872 41.2285 51.6727 41.252 50.6883C41.3223 48.0809 41.4043 45.4675 41.4746 42.8543C41.4805 42.7312 41.6621 41.741 42.2129 41.741C42.7695 41.741 42.9512 42.7312 42.957 42.8543C43.0273 45.4675 43.1035 48.0808 43.1797 50.6883C43.2031 51.6727 43.3848 58.4872 43.4551 62.9636C43.5078 66.157 43.5723 78.0336 43.5371 82.0124C43.5312 82.364 43.5254 82.7448 43.5195 83.1608C46.2734 86.0553 48.4765 88.991 49.2324 89.8816C55.5137 97.2761 61.4844 97.616 69.9687 97.7448C70.7128 95.6121 72.1777 93.0808 75.078 91.1355C79.6718 88.0535 84.9042 88.2761 86.1288 88.2995C87.1014 87.3971 88.1327 86.987 89.0819 87.028C91.3378 87.1334 91.3319 87.233 93.5937 87.233C93.7694 87.233 93.8456 87.233 93.9218 87.2799C93.9452 87.2741 93.9745 87.2741 93.998 87.2682C94.2733 87.233 94.3027 87.233 94.496 87.233C94.7538 87.233 97.6718 86.9518 99.8398 92.8229C100.004 93.2565 100.15 93.7077 100.285 94.1705C100.889 94.1881 101.621 94.2174 102.617 94.2526C102.951 94.2643 104.123 94.3112 106.771 94.4225L111.793 94.6393C111.799 94.6393 112.918 94.5573 113.762 95.4948C114.389 96.1803 114.558 97.0593 114.371 97.8503C114.465 97.8561 114.558 97.8561 114.646 97.8561C116.105 97.8444 132.441 97.6862 132.821 97.6628C136.577 97.4284 139.618 94.317 139.583 90.4205C139.36 65.143 139.366 65.143 139.308 39.8718C139.302 36.0808 136.243 33.0163 132.446 33.0221C122.69 33.028 118.425 33.0163 117.206 33.0104C109.818 32.987 82.4488 32.8405 82.3776 32.8405C78.6099 32.9577 75.5689 36.0456 75.5456 39.8659C75.5221 43.8092 75.2174 90.4209 75.2174 90.4259C75.1823 90.6837 74.9713 91.1641 74.4733 91.1641C74.2214 91.1641 73.7233 90.8067 73.735 90.4259C73.735 90.3907 73.401 39.7359 73.4069 39.5084C73.571 34.5689 77.6139 30.5729 82.6413 30.5435L117.206 30.3736C120.142 30.3619 132.483 30.356 132.815 30.3677C137.924 30.5669 141.95 34.7857 141.938 39.86C141.879 65.1425 141.885 65.1425 141.663 90.4262C141.616 95.5473 137.438 99.5668 132.452 99.5141L114.645 99.3383C113.907 99.3325 113.831 99.4321 113.602 99.3383L113.496 99.2925ZM69.4987 99.4038C61.0553 99.4917 54.0062 99.3042 46.6237 90.31C35.9303 77.2963 29.4437 75.3863 18.3174 74.8363C16.7354 74.7601 15.8038 74.7308 10.8174 74.5902L10.7237 77.5843C25.7762 78.0238 32.0287 77.5609 43.4837 91.9168C45.6576 94.6356 49.7181 99.8856 56.9549 102.036C60.7928 103.173 64.7362 103.354 69.1893 103.436C69.1659 102.938 69.1659 102.434 69.1835 101.925C69.201 101.585 69.2362 100.647 69.4999 99.4051L69.4987 99.4038ZM111.791 96.1225C110.233 96.1987 108.674 96.2749 107.115 96.3452C106.553 96.3686 101.807 96.5854 100.119 96.6264C98.8713 96.6557 97.6232 96.6557 96.3693 96.6733C96.3517 97.0073 96.3517 97.3354 96.381 97.7046C98.2795 97.7397 100.184 97.7573 102.088 97.7983C104.063 97.8393 111.006 98.062 111.785 98.0913C112.957 98.1264 113.145 96.474 112.008 96.1577C111.926 96.1342 111.838 96.1284 111.82 96.1284L111.791 96.1225ZM12.6212 92.478C12.961 93.603 13.336 94.5933 13.752 95.4019C14.3673 96.6031 15.0822 97.4175 15.5625 97.2652C16.1895 97.0659 17.0918 95.853 17.959 93.4683C17.2383 94.4878 16.4355 95.0503 15.5918 95.0503C14.5078 95.0503 13.4942 94.1128 12.621 92.478H12.6212ZM111.791 107.413C110.233 107.483 108.674 107.56 107.11 107.63C106.553 107.659 101.807 107.876 100.113 107.911C98.8419 107.94 97.5704 107.946 96.2932 107.964C96.2639 108.31 96.2756 108.644 96.3166 108.989C98.2385 109.024 100.16 109.042 102.076 109.083C104.063 109.13 111.006 109.352 111.785 109.376C112.957 109.417 113.145 107.759 112.008 107.448C111.926 107.425 111.838 107.413 111.821 107.413L111.791 107.413ZM98.3787 94.1243C98.0506 92.9583 97.658 91.9504 97.2185 91.1243C95.9119 88.6868 94.6755 88.7278 94.4998 88.7103V88.7161C94.4881 88.7161 92.988 88.5286 91.5584 91.6516C88.5467 98.2376 89.4491 111.112 92.8827 115.335C94.1659 116.912 95.0272 116.32 95.4315 116.021C96.4394 115.271 97.3358 113.683 98.0214 111.591C96.7089 111.615 95.6894 111.632 95.203 111.626C94.6113 111.62 94.1542 111.24 93.9726 110.818C93.914 110.671 93.3222 108.632 93.8612 106.593C93.9023 106.423 94.0194 105.808 94.5995 105.515C94.8866 105.369 95.1503 105.369 95.203 105.369C97.2655 105.392 98.1913 105.398 99.2343 105.427C99.3866 103.769 99.4277 102.023 99.3339 100.277C96.9784 100.324 95.1854 100.353 94.9979 100.324C94.5174 100.253 94.0956 99.8959 93.9432 99.4389C93.8963 99.2982 93.4862 97.4291 93.8905 95.267C93.8963 95.2201 93.9491 94.9271 94.0721 94.722C94.1131 94.6517 94.3768 94.2006 94.9745 94.101C95.0916 94.0834 95.1854 94.0834 95.203 94.0834C96.7088 94.101 97.5995 94.1067 98.3787 94.1243ZM91.3767 88.804C90.24 88.8568 89.0271 88.9154 88.9451 88.9329C86.5252 89.3724 84.5681 95.4778 84.4627 102.105C84.4568 102.539 84.199 110.016 86.5662 114.867C87.4568 116.689 88.3943 117.38 89.0857 117.398L91.2184 117.468C90.3688 116.572 89.5719 115.259 88.8982 113.431C87.2048 108.832 87.3162 103.699 87.3337 102.843C87.4626 96.6734 89.0681 91.3355 91.3767 88.8045V88.804ZM84.8083 89.8997C81.0642 90.3451 76.9568 91.8626 74.3024 95.1966C71.8063 98.3314 71.6951 101.917 71.8767 104.249C72.2224 108.732 74.7127 111.96 78.5564 113.818C79.5643 113.232 81.1814 111.667 81.4803 107.577C81.5858 106.113 81.6971 104.788 81.8084 103.593L81.8026 103.441C81.7967 102.96 81.5389 95.3021 84.6443 90.1633C84.7029 90.0695 84.7557 89.9816 84.8084 89.8996L84.8083 89.8997ZM107.548 47.6885C108.615 47.6885 114.884 47.5303 120.233 52.9092C126.239 58.9444 127.288 68.9117 121.581 76.2942C118.03 80.8762 111.69 84.1575 104.466 82.927C94.8448 81.2922 87.7959 71.8 90.0459 61.5457C91.7217 53.8817 98.4893 47.8295 106.986 47.6995L107.548 47.6885ZM107.548 49.1709C99.2046 49.2529 91.6996 56.2959 92.0508 65.5421C92.3438 73.2882 98.3966 80.0384 106.758 80.5134C112.629 80.8415 118.711 77.7477 121.647 71.7126C124.43 65.9762 123.563 58.2651 117.897 53.1851C116.585 52.0074 114.979 51.0112 113.374 50.355C110.696 49.271 108.592 49.2007 107.549 49.1714L107.548 49.1709ZM101.402 62.6359C103.763 62.4894 105.023 65.1789 103.693 67.0362C103.628 67.1183 102.908 68.1495 101.56 68.2316C99.1871 68.3839 97.6049 65.7413 98.9292 63.7961C99.4917 62.9582 100.4 62.5656 101.273 62.63C101.337 62.6359 101.337 62.6359 101.402 62.6359ZM101.402 64.1182C101.214 64.13 100.576 64.587 100.91 65.2257C100.921 65.255 101.039 65.6182 101.566 65.5889C102.111 65.5655 102.38 64.6046 101.636 64.2003C101.431 64.089 101.402 64.1358 101.402 64.1182ZM107.917 51.626C107.917 51.749 107.824 51.9424 107.548 52.001C107.537 52.001 103.441 52.0186 99.5386 55.0947C97.6459 56.583 95.7299 58.7275 94.7632 62.0674C94.7163 62.2373 94.4351 62.3662 94.3179 62.3428C94.2007 62.3135 94.0191 62.1553 94.0483 61.8916C94.0483 61.8916 94.1128 61.5576 94.2065 61.1767C94.3882 60.4795 95.8823 54.3857 102.38 51.9775C104.666 51.1396 106.992 51.2392 107.396 51.2568H107.455C107.484 51.2568 107.917 51.3506 107.917 51.626ZM113.607 62.6357C115.962 62.4893 117.222 65.1787 115.892 67.0361C115.833 67.1181 115.107 68.1494 113.765 68.2314C111.392 68.3838 109.81 65.7412 111.128 63.7959C111.697 62.958 112.605 62.5655 113.478 62.6299C113.542 62.6358 113.543 62.6357 113.607 62.6357ZM113.607 64.1181C113.414 64.1298 112.775 64.5869 113.109 65.2255C113.121 65.2548 113.244 65.6181 113.765 65.5888C114.316 65.5654 114.58 64.6044 113.841 64.2002C113.636 64.0889 113.607 64.1357 113.607 64.1181Z" fill="black"/>
<path fill-rule="evenodd" clip-rule="evenodd" d="M58.3186 83.3608C58.635 82.9565 59.3909 83.2553 59.4084 83.267C59.7776 83.4663 60.1526 83.6538 60.5217 83.853C60.6565 83.9291 61.6233 84.4506 62.2269 84.8256C62.6546 85.0951 64.178 86.1967 64.6526 86.6127C65.6018 87.4506 68.6721 90.4506 68.6897 90.4857C68.7776 90.6557 69.0764 91.1889 68.8128 91.5229C68.6663 91.7221 68.2796 91.9213 67.7815 91.6518C67.5706 91.5463 64.0315 89.3841 63.0354 88.6986C62.5139 88.3412 61.0725 87.1341 60.7034 86.7826C60.1878 86.2904 59.4495 85.4878 59.3381 85.3705C59.0569 85.06 58.7815 84.7436 58.4944 84.4389C58.4827 84.4213 58.0022 83.7651 58.3186 83.3608ZM58.8049 91.9155C58.9221 91.4292 59.9182 91.3765 60.1702 91.3648C60.2581 91.3589 62.1448 91.3823 63.0119 91.6929C63.6916 91.939 65.9358 92.9995 65.9709 93.0171C66.1643 93.105 66.3108 93.2456 66.4104 93.4156C66.4514 93.48 66.7502 93.9722 66.1936 94.3062C66.0236 94.4117 65.8186 94.4468 65.6193 94.4585C65.4436 94.4644 63.0646 94.3531 62.385 94.2593C61.5647 94.1421 59.7892 93.2808 59.7072 93.2281C59.2502 92.9468 58.6467 92.5659 58.8049 91.9155ZM66.2814 81.5034C66.8205 81.2046 67.6994 82.23 67.8928 82.4292C67.9631 82.5054 68.467 83.0386 68.7541 83.4077C68.9592 83.6714 69.6096 84.7202 69.7795 85.1011C70.1076 85.8569 71.0334 88.5229 71.0334 88.5639C71.0392 88.7632 71.0978 88.9624 71.0451 89.1557C70.8635 89.7886 70.301 89.6245 70.2248 89.6069C70.0373 89.5483 69.8732 89.4253 69.7385 89.2847C69.6096 89.1499 67.9103 87.0288 67.4708 86.3784C67.2365 86.0327 66.6974 84.9253 66.5802 84.6089C66.422 84.1695 66.2345 83.4605 66.2111 83.3609C66.1408 83.0913 65.7424 81.8022 66.2814 81.5034Z" fill="black"/>
</svg>
