<?xml version="1.0" encoding="UTF-8"?>
<svg width="1200pt" height="1200pt" version="1.1" viewBox="0 0 1200 1200" xmlns="http://www.w3.org/2000/svg">
 <path d="m1022.5 869.48c-8.0156 0-15.516-2.4844-22.5-7.5-16.5-12.516-20.016-36-7.5-52.5 45.516-60.516 69.516-132.98 69.516-209.48s-24-148.5-69.516-209.48c-12.516-16.5-9-39.984 7.5-52.5s39.984-9 52.5 7.5c55.5 74.016 84.984 162 84.984 254.48s-29.484 180.52-84.984 254.48c-7.5 9.9844-18.516 15-30 15z"/>
 <path d="m900.98 752.48c-10.5 0-20.484-4.5-27.984-12.516-13.5-15.516-12.516-39 3-53.016 0.51562-0.51562 27.516-27 27.516-87s-28.5-90-30-90.984c-14.484-14.484-14.484-38.484 0-53.016 14.484-14.484 38.016-15 52.5-0.51562 5.4844 5.0156 51.984 53.016 51.984 144.52s-47.016 138-52.5 143.02c-6.9844 6.5156-15.984 9.5156-24.984 9.5156z"/>
 <path d="m177.52 869.48c-11.484 0-22.5-5.0156-30-15-55.5-74.016-84.984-162-84.984-254.48s29.484-180.52 84.984-254.48c12.516-16.5 36-20.016 52.5-7.5s20.016 36 7.5 52.5c-45.516 60.516-69.516 132.98-69.516 209.48s24 148.5 69.516 209.48c12.516 16.5 9 39.984-7.5 52.5-6.9844 5.0156-14.484 7.5-22.5 7.5z"/>
 <path d="m298.5 752.02c-8.4844 0-17.484-3-24.516-9.5156-5.4844-5.0156-52.5-49.5-52.5-143.02s47.016-139.5 51.984-144.52c15-14.484 38.484-14.016 53.016 0.98438 14.484 14.484 14.016 38.484-0.51562 52.5-2.0156 2.0156-29.484 32.016-29.484 90.984 0 59.016 26.484 86.016 27.984 87.516 14.484 14.016 15.516 37.5 2.0156 52.5-7.5 8.0156-17.484 12-27.516 12z"/>
 <path d="m496.5 821.48c-15 0-30-3.9844-44.016-12-27.516-15.984-43.5-44.016-43.5-75.516v-267.52c0-31.5 16.5-60 43.5-75.516 27.516-15.984 60-15.984 87.516 0l234 133.5c27.516 15.984 44.016 44.016 44.016 75.984 0 32.016-16.5 60-44.016 75.984l-234 133.5c-13.5 8.0156-28.5 11.484-43.5 11.484zm0-367.5c-2.4844 0-5.0156 0.98438-6.5156 2.0156-2.4844 1.5-6 4.5-6 11.016v267.52c0 6.5156 3.9844 9.5156 6 11.016 2.4844 1.5 6.9844 3 12.516 0l234-133.5c5.4844-3 6.5156-8.0156 6.5156-11.016s-0.98438-7.5-6.5156-11.016l-234-133.5s-4.5-1.5-6-1.5z"/>
</svg>
