<?xml version="1.0" encoding="UTF-8"?>
<svg width="1200pt" height="1200pt" version="1.1" viewBox="0 0 1200 1200" xmlns="http://www.w3.org/2000/svg">
 <path d="m141.84 114c-78.066 0-141.84 63.777-141.84 141.84v688.31c0 78.066 63.777 141.84 141.84 141.84h916.31c78.066 0 141.84-63.777 141.84-141.84v-688.31c0-78.066-63.777-141.84-141.84-141.84zm59.18 114h797.95c47.695 0 87.023 39.328 87.023 87.023v569.95c0 47.695-39.328 87.023-87.023 87.023h-797.95c-47.695 0-87.023-39.328-87.023-87.023v-569.95c0-47.695 39.328-87.023 87.023-87.023z" fill-rule="evenodd"/>
 <path d="m477.57 369.04c-31.918-0.41406-63 24.961-63 59.957v342.02c0 46.66 55.254 76.227 94.074 50.348l247.17-164.75c39.492-26.328 39.492-86.855 0-113.18l-247.16-164.77c-9.7031-6.4688-20.438-9.4727-31.078-9.6094z" fill-rule="evenodd"/>
</svg>
