<?xml version="1.0" encoding="UTF-8"?>
<svg width="1200pt" height="1200pt" version="1.1" viewBox="0 0 1200 1200" xmlns="http://www.w3.org/2000/svg">
 <path d="m1105.7 181.98c-41.098-41.105-96.82-64.223-154.94-64.289l-701.54-0.003906c-58.125 0.070313-113.84 23.184-154.94 64.289-41.102 41.098-64.223 96.816-64.289 154.94v526.15c0.066406 58.125 23.188 113.84 64.289 154.94 41.098 41.105 96.82 64.227 154.94 64.293h701.54c58.125-0.070313 113.84-23.188 154.94-64.293 41.102-41.09 64.223-96.809 64.289-154.93v-526.16c-0.066406-58.125-23.188-113.84-64.289-154.94zm-23.402 681.09c0 34.891-13.859 68.34-38.52 93.016-24.672 24.664-58.125 38.523-93.016 38.523h-701.54c-34.891 0-68.344-13.859-93.016-38.523-24.664-24.672-38.52-58.125-38.52-93.016l-0.003906-526.16c0-34.891 13.859-68.344 38.52-93.016 24.672-24.664 58.125-38.52 93.016-38.52h701.54c34.891 0 68.344 13.859 93.016 38.52 24.664 24.676 38.52 58.125 38.52 93.016z"/>
 <path d="m866.9 524.8-309.43-185.6h-0.007812c-17.824-10.707-38.875-14.738-59.391-11.363-20.523 3.375-39.18 13.938-52.625 29.793-13.457 15.855-20.848 35.965-20.836 56.766v371.21c-0.10547 15.551 3.9648 30.84 11.793 44.277s19.125 24.527 32.711 32.102l-0.003907-0.007813c13.172 7.4766 28.051 11.43 43.188 11.488 15.918-0.027344 31.516-4.4141 45.117-12.676l309.48-185.6c26.414-15.848 42.574-44.395 42.574-75.195 0-30.797-16.156-59.348-42.574-75.195zm-354.6 261.07v-371.47l309.43 185.6z"/>
</svg>
