<?xml version="1.0" encoding="UTF-8"?>
<svg width="1200pt" height="1200pt" version="1.1" viewBox="0 0 1200 1200" xmlns="http://www.w3.org/2000/svg">
 <path d="m804 396-50.398 50.398c40.801 40.801 63.602 94.801 63.602 153.6 0 57.602-22.801 112.8-63.602 153.6l50.398 50.398c54-54 84-127.2 84-204 1.1992-76.801-28.801-150-84-204z"/>
 <path d="m396 396c-54 54-84 127.2-84 204s30 150 84 204l50.398-50.398c-40.801-40.801-63.602-94.801-63.602-153.6 0-57.602 22.801-112.8 63.602-153.6z"/>
 <path d="m900 300-50.398 50.398c136.8 136.8 136.8 361.2 0 498l50.398 51.602c165.6-165.6 165.6-434.4 0-600z"/>
 <path d="m351.6 351.6-51.602-51.602c-80.398 80.398-124.8 187.2-124.8 300s44.402 219.6 124.8 300l50.398-50.398c-66-66-103.2-154.8-103.2-248.4 0-93.602 37.199-183.6 104.4-249.6z"/>
 <path d="m600 452.4c-81.602 0-147.6 66-147.6 147.6s66 147.6 147.6 147.6 147.6-66 147.6-147.6-66-147.6-147.6-147.6zm0 223.2c-42 0-75.602-33.602-75.602-75.602s33.602-75.602 75.602-75.602 75.602 33.602 75.602 75.602-33.602 75.602-75.602 75.602z"/>
</svg>
