<?xml version="1.0" encoding="UTF-8"?>
<svg width="1200pt" height="1200pt" version="1.1" viewBox="0 0 1200 1200" xmlns="http://www.w3.org/2000/svg">
 <path d="m935.24 1026h-670.48c-129.45 0-234.76-105.31-234.76-234.76v-382.48c0-129.45 105.31-234.76 234.76-234.76h670.49c129.44 0 234.75 105.31 234.75 234.76v382.49c0 129.44-105.31 234.75-234.76 234.75zm-670.48-792c-96.363 0-174.76 78.395-174.76 174.76v382.49c0 96.359 78.395 174.75 174.76 174.75h670.49c96.359 0 174.76-78.395 174.76-174.76l-0.003906-382.48c0-96.363-78.395-174.76-174.76-174.76z"/>
 <path d="m468 809.38v-396.16l387.45 198.07zm60-298.1v200.04l195.64-100.02z"/>
</svg>
