<svg width="16" height="12" viewBox="0 0 16 12" fill="none" xmlns="http://www.w3.org/2000/svg">
<path fill-rule="evenodd" clip-rule="evenodd" d="M7.82883 0C3.30383 0 0.932828 3.48117 0.182828 4.82417C-0.0585725 5.25542 -0.0609227 5.77885 0.175796 6.21245C0.921113 7.57573 3.2648 11.0406 7.82896 11.0406C12.354 11.0406 14.725 7.55945 15.475 6.21645C15.7164 5.7852 15.7195 5.26177 15.482 4.82817C14.7367 3.46488 12.393 0 7.82883 0ZM7.82883 9.6C4.09516 9.6 2.12349 6.77267 1.44066 5.52417C2.13519 4.28198 4.13533 1.4405 7.82883 1.4405C11.5625 1.4405 13.5342 4.26783 14.217 5.51633C13.5225 6.75852 11.5223 9.6 7.82883 9.6ZM6.14916 5.52033C6.14916 4.59298 6.90151 3.84067 7.82883 3.84067C8.75614 3.84067 9.5085 4.59302 9.5085 5.52033C9.5085 6.44765 8.75614 7.2 7.82883 7.2C6.90151 7.2 6.14916 6.44765 6.14916 5.52033ZM7.82883 2.4C6.10616 2.4 4.70849 3.79765 4.70849 5.52033C4.70849 7.24302 6.10614 8.64067 7.82883 8.64067C9.55151 8.64067 10.9492 7.24302 10.9492 5.52033C10.9492 3.79765 9.55151 2.4 7.82883 2.4Z" fill="black"/>
</svg>
