<svg width="17" height="17" viewBox="0 0 17 17" fill="none" xmlns="http://www.w3.org/2000/svg">
<path d="M9.16712 4.125V7.45867H12.5008V9.12507H9.16712V12.4587H7.50072V9.12507H4.16705V7.45867H7.50072V4.125H9.16712ZM14.9421 7.45783H16.6241C16.2319 3.5275 13.0974 0.392167 9.16712 0V1.682C12.1764 2.06013 14.5639 4.44917 14.9421 7.45783ZM14.9421 9.125C14.5296 12.4087 11.7264 14.9587 8.33345 14.9587C4.65762 14.9587 1.66711 11.968 1.66711 8.29233C1.66711 4.89933 4.21711 2.0955 7.50078 1.68367L7.5 0C3.29467 0.419533 0 3.97733 0 8.29133C0 12.8867 3.73817 16.625 8.33367 16.625C12.6468 16.625 16.2047 13.3303 16.625 9.125H14.9421Z" fill="black"/>
</svg>
