<svg width="23" height="23" viewBox="0 0 23 23" fill="none" xmlns="http://www.w3.org/2000/svg">
<mask id="mask0_11212_5790" style="mask-type:luminance" maskUnits="userSpaceOnUse" x="4" y="3" width="15" height="17">
<path d="M18.7894 3.44922H4.6001V19.5492H18.7894V3.44922Z" fill="white"/>
</mask>
<g mask="url(#mask0_11212_5790)">
<path fill-rule="evenodd" clip-rule="evenodd" d="M14.4998 3.44922C14.7591 5.66295 16.0854 7.2249 18.2312 7.36267V9.46234L18.2173 9.46366V7.68007C16.0716 7.54236 14.8379 6.22216 14.5786 4.00845L12.3056 4.0084V13.3217C12.6336 17.5138 9.36719 17.6383 8.11777 16.0489C9.58333 16.9655 11.9629 16.3697 11.6807 12.7626V3.44922H14.4998ZM8.39245 18.8883C7.10807 18.624 5.94019 17.8567 5.25439 16.7347C3.5882 14.0087 5.09012 9.56595 9.9227 9.10871V11.7336L9.91482 11.735V9.76559C5.43446 10.4791 4.98463 15.2919 6.22545 17.2938C6.70391 18.0659 7.48947 18.6089 8.39245 18.8883Z" fill="#26F4EE"/>
<path fill-rule="evenodd" clip-rule="evenodd" d="M15.1506 4.00796C15.3199 5.45312 15.9045 6.68317 16.8869 7.40152C15.5576 6.88943 14.7785 5.71419 14.5785 4.00781L15.1506 4.00796ZM18.2171 7.99101C18.4 8.02982 18.5907 8.0561 18.7892 8.06881V10.5578C17.5445 10.6803 16.4553 10.2705 15.1859 9.50728L15.3808 13.7699C15.3808 15.1445 15.3859 15.7728 14.6483 17.0373C12.9935 19.8742 10.0149 20.0984 8.00074 18.7472C10.6345 19.8341 14.6216 18.5149 14.6139 13.7699V9.11749C15.8832 9.88081 16.9724 10.2905 18.2171 10.168V7.99101ZM9.91469 9.79007C10.175 9.73585 10.4483 9.69416 10.7357 9.66696V12.2919C9.68923 12.4643 9.02453 12.7856 8.71374 13.38C7.73481 15.2519 8.99521 16.7365 10.4051 16.9596C8.76618 17.2319 6.8443 15.571 7.99011 13.38C8.30084 12.7857 8.86819 12.4643 9.91469 12.2919V9.79007Z" fill="#FB2C53"/>
<path fill-rule="evenodd" clip-rule="evenodd" d="M14.5787 4.00786C14.838 6.22158 16.0717 7.54172 18.2173 7.67943V10.1683C16.9726 10.291 15.8834 9.88117 14.6141 9.11785V13.7702C14.6241 19.8425 8.09183 20.3045 6.22555 17.2932C4.9848 15.2912 5.43457 10.4785 9.91492 9.76496V12.2922C8.86842 12.4646 8.30107 12.786 7.99034 13.3803C6.06978 17.0529 12.7685 19.2379 12.3056 13.3212V4.00781L14.5787 4.00786Z" fill="black"/>
</g>
</svg>
