<svg width="20" height="20" viewBox="0 0 20 20" fill="none" xmlns="http://www.w3.org/2000/svg">
<path d="M15.8339 4.375H13.1252V3.3336C13.1205 2.5297 12.4705 1.8797 11.6666 1.875H8.33377C7.52987 1.87969 6.87987 2.52968 6.87517 3.3336V4.375H4.1665C3.82197 4.375 3.5415 4.65468 3.5415 5C3.5415 5.34532 3.82197 5.625 4.1665 5.625H4.3751V16.6663C4.37979 17.4702 5.02979 18.1202 5.8337 18.1249H14.1665C14.9704 18.1202 15.6204 17.4703 15.6251 16.6663V5.625H15.8337C16.1783 5.625 16.4587 5.34532 16.4587 5C16.4587 4.65468 16.1783 4.375 15.8337 4.375H15.8339ZM8.1252 3.3336C8.1252 3.21798 8.21817 3.125 8.3338 3.125H11.6675H11.6667C11.7222 3.125 11.7753 3.14688 11.8143 3.18594C11.8534 3.225 11.8753 3.27812 11.8753 3.33359V4.37499H8.12528L8.1252 3.3336ZM14.3752 16.6673V16.6665C14.3752 16.722 14.3533 16.7751 14.3143 16.8141C14.2752 16.8532 14.2221 16.8751 14.1666 16.8751H5.83378C5.71815 16.8751 5.62518 16.7821 5.62518 16.6665V5.62515H14.3752L14.3752 16.6673ZM12.2915 9.5836V12.9173V12.9165C12.2915 13.2618 12.0119 13.5415 11.6665 13.5415C11.322 13.5415 11.0415 13.2618 11.0415 12.9165V9.58282V9.5836C11.0415 9.23828 11.322 8.9586 11.6665 8.9586C12.0119 8.9586 12.2915 9.23828 12.2915 9.5836ZM8.95787 9.5836V12.9173L8.95865 12.9165C8.95865 13.2618 8.67819 13.5415 8.33365 13.5415C7.98834 13.5415 7.70865 13.2618 7.70865 12.9165V9.58282V9.5836C7.70865 9.23828 7.98834 8.9586 8.33365 8.9586C8.67819 8.9586 8.95865 9.23828 8.95865 9.5836H8.95787Z" fill="white"/>
</svg>
