<?xml version="1.0" encoding="UTF-8"?>
<svg width="1200pt" height="1200pt" version="1.1" viewBox="0 0 1200 1200" xmlns="http://www.w3.org/2000/svg">
 <path d="m418.63 365.73c-70.781 0-128.47 57.691-128.47 128.47v211.6c0 70.781 57.691 128.47 128.47 128.47h362.74c70.781 0 128.47-57.691 128.47-128.47v-211.6c0-70.781-57.691-128.47-128.47-128.47zm0 45.344h362.74c46.445 0 83.129 36.684 83.129 83.129v211.6c0 46.445-36.684 83.129-83.129 83.129h-362.74c-46.445 0-83.129-36.684-83.129-83.129v-211.6c0-46.445 36.684-83.129 83.129-83.129zm114.07 75.57c-6.1328-0.19141-12.082 2.1133-16.488 6.3867-4.4062 4.2695-6.8945 10.148-6.8906 16.285v181.37c-0.03125 5.625 2.0312 11.062 5.7852 15.25 3.7539 4.1914 8.9297 6.8359 14.523 7.4219 4.5703 0.49609 9.1836-0.41016 13.227-2.5977l166.26-90.688c4.8242-2.6016 8.5391-6.8633 10.465-11.996 1.9258-5.1289 1.9258-10.785 0-15.918-1.9258-5.1328-5.6406-9.3945-10.465-11.996l-166.26-90.688v0.003907c-3.1172-1.7305-6.5938-2.7031-10.156-2.8359zm21.965 60.93 96.117 52.43-96.117 52.664z"/>
</svg>
