<svg width="23" height="23" viewBox="0 0 23 23" fill="none" xmlns="http://www.w3.org/2000/svg">
<mask id="mask0_11207_4547" style="mask-type:luminance" maskUnits="userSpaceOnUse" x="2" y="2" width="18" height="19">
<path d="M19.8224 2.875H2.875V20.125H19.8224V2.875Z" fill="white"/>
</mask>
<g mask="url(#mask0_11207_4547)">
<path d="M10.6788 8.58084C11.0739 8.58084 11.4065 8.37464 11.4498 8.10957L11.8415 3.67378C11.8415 3.23454 11.3243 2.875 10.6788 2.875C10.0299 2.875 9.51611 3.23454 9.51611 3.67378L9.9112 8.10957C9.95283 8.37464 10.2837 8.58084 10.6788 8.58084Z" fill="#FFC220"/>
<path d="M8.27622 9.96935C8.47195 9.62279 8.46068 9.23818 8.24931 9.0666L4.59325 6.50998C4.21295 6.2882 3.64371 6.55241 3.31798 7.11212C2.99309 7.6709 3.05893 8.29817 3.43146 8.51563L7.47909 10.3921C7.73813 10.4892 8.07686 10.309 8.27622 9.9659" fill="#FFC220"/>
<path d="M13.0811 9.9646C13.2882 10.3076 13.6269 10.4879 13.8791 10.396L17.9267 8.51428C18.3027 8.2925 18.359 7.67133 18.0411 7.11249C17.7162 6.55284 17.1435 6.29035 16.7641 6.50782L13.1071 9.06185C12.9044 9.23596 12.8897 9.62236 13.0855 9.96805" fill="#FFC220"/>
<path d="M10.6788 14.1211C11.0739 14.1211 11.4065 14.3273 11.4498 14.5924L11.8415 19.0282C11.8415 19.4674 11.3243 19.8235 10.6788 19.8235C10.0299 19.8235 9.51611 19.4674 9.51611 19.0282L9.9112 14.5924C9.95283 14.3273 10.2837 14.1211 10.6788 14.1211Z" fill="#FFC220"/>
<path d="M13.0811 12.7382C13.2882 12.3943 13.6269 12.2105 13.8791 12.3102L17.9267 14.1885C18.3027 14.406 18.359 15.0323 18.0411 15.592C17.7162 16.1473 17.1435 16.4116 16.7641 16.1941L13.1071 13.6366C12.9044 13.4642 12.8897 13.0795 13.0855 12.7382" fill="#FFC220"/>
<path d="M8.27622 12.7345C8.47195 13.0802 8.46068 13.4639 8.24931 13.6372L4.59325 16.1904C4.21295 16.4122 3.64371 16.1471 3.31798 15.5917C2.99309 15.0329 3.05893 14.4057 3.43146 14.1883L7.47909 12.31C7.73813 12.2112 8.07686 12.3931 8.27622 12.7345Z" fill="#FFC220"/>
<path d="M19.111 15.8042H19.1613C19.2297 15.8042 19.2574 15.8259 19.2652 15.8805C19.2799 15.9412 19.2877 15.9819 19.3025 15.9992H19.4324C19.4212 15.9862 19.4064 15.9533 19.3986 15.877C19.3839 15.8112 19.3501 15.7739 19.3025 15.7609V15.7488C19.3682 15.7341 19.4064 15.6899 19.4064 15.6353C19.4064 15.5859 19.3839 15.5504 19.3614 15.5279C19.3181 15.5071 19.2765 15.4906 19.1847 15.4906C19.1032 15.4906 19.0434 15.4975 18.9958 15.5088V15.9992H19.111V15.8042ZM19.1144 15.5807L19.1734 15.5729C19.2427 15.5729 19.2799 15.605 19.2799 15.65C19.2799 15.7003 19.2297 15.7237 19.1656 15.7237H19.1144V15.5807ZM19.1881 15.248C18.9039 15.248 18.6787 15.4698 18.6787 15.7419C18.6787 16.0208 18.9039 16.2426 19.1881 16.2426C19.4757 16.2426 19.694 16.0208 19.694 15.7419C19.694 15.4698 19.4757 15.248 19.1881 15.248ZM19.1881 15.3477C19.4064 15.3477 19.5684 15.5244 19.5684 15.7419C19.5684 15.961 19.4064 16.143 19.1881 16.1395C18.9698 16.1395 18.8043 15.961 18.8043 15.7419C18.8043 15.5244 18.9698 15.3477 19.1847 15.3477" fill="#FFC220"/>
</g>
</svg>
