<svg xmlns="http://www.w3.org/2000/svg" width="227" height="80" fill="none" class="w-full h-full"><path fill="#fff" d="M0 8a8 8 0 0 1 8-8h219v80H0V8Z"/><path stroke="#E4E4E7" d="M42 0v80"/><rect width="51" height="6" x="54" y="14" fill="#D4D4D8" rx="3"/><rect width="28" height="6" x="7" y="52" fill="#D4D4D8" rx="3"/><rect width="22" height="6" x="7" y="42" fill="#D4D4D8" rx="3"/><rect width="20" height="6" x="7" y="62" fill="#D4D4D8" rx="3"/><rect width="28" height="6" x="7" y="32" fill="#D4D4D8" rx="3"/><rect width="6" height="6" x="7" y="7" fill="#0A0A0C" rx="3"/><rect width="10" height="10" x="54" y="47" fill="#D4D4D8" rx="5"/><rect width="43" height="6" x="71" y="49" fill="#D4D4D8" rx="3"/><rect width="10" height="10" x="54" y="62" fill="#D4D4D8" rx="5"/><rect width="59" height="6" x="71" y="64" fill="#D4D4D8" rx="3"/><rect width="27" height="10" x="185" y="12" fill="#1F1F21" rx="5"/><path fill="url(#a)" fill-opacity=".6" d="M0 8a8 8 0 0 1 8-8h219v80H0V8Z"/><path fill="#0A0A0C" d="M56.12 39h-1.747l3.926-10.91H60.2L64.126 39H62.38l-3.084-8.928h-.086L56.12 39Zm.293-4.272h5.668v1.385h-5.668v-1.385Zm11.542 4.453c-.519 0-.988-.096-1.407-.287a2.37 2.37 0 0 1-.996-.847c-.241-.37-.362-.823-.362-1.359 0-.461.089-.841.266-1.14.178-.298.418-.534.72-.708.301-.174.639-.306 1.012-.394.373-.09.752-.157 1.14-.203l1.193-.138c.305-.04.527-.101.665-.187.139-.085.208-.223.208-.415v-.037c0-.466-.131-.826-.394-1.082-.26-.255-.646-.383-1.161-.383-.536 0-.959.119-1.268.357-.305.234-.517.495-.634.783L65.44 32.8c.178-.497.437-.899.778-1.204.345-.31.74-.533 1.188-.671a4.639 4.639 0 0 1 1.412-.213c.326 0 .672.039 1.038.117.37.074.714.213 1.034.415.323.203.587.492.793.869.206.372.31.857.31 1.454V39h-1.556v-1.119h-.064a2.265 2.265 0 0 1-.464.608c-.205.199-.47.364-.793.495-.323.131-.71.197-1.161.197Zm.346-1.278c.44 0 .817-.087 1.13-.261.315-.174.555-.402.718-.682.167-.284.25-.588.25-.911v-1.055c-.056.057-.166.11-.33.16-.16.046-.342.087-.548.123-.206.032-.407.062-.602.09l-.49.064c-.31.04-.592.105-.847.197a1.454 1.454 0 0 0-.607.4c-.15.17-.224.397-.224.681 0 .395.145.693.437.895.29.2.662.299 1.113.299Z"/><defs><linearGradient id="a" x1="113.5" x2="113.5" y1="0" y2="80" gradientUnits="userSpaceOnUse"><stop stop-color="#fff" stop-opacity="0"/><stop offset="1" stop-color="#fff"/></linearGradient></defs></svg>