<svg width="23" height="23" viewBox="0 0 23 23" fill="none" xmlns="http://www.w3.org/2000/svg">
<path d="M12.8867 7.8114C12.5169 8.00173 12.3567 8.35691 12.3567 9.32107C12.3567 9.32107 12.5416 9.1308 12.8374 9.0166C13.0531 8.93415 13.2072 8.82634 13.3181 8.74388C13.6385 8.49646 13.6879 8.19832 13.6879 7.67823C13.6817 7.67823 13.1764 7.64649 12.8867 7.8114Z" fill="#E16C35"/>
<path d="M10.625 8.03348C10.3045 8.30621 10.2244 8.77564 10.2244 8.77564L9.18896 12.8606L8.33848 9.51773C8.25838 9.16255 8.09813 8.72486 7.85778 8.4204C7.562 8.03348 6.94566 8.00807 6.87171 8.00807C6.81628 8.00807 6.20615 8.03348 5.88564 8.4204C5.64531 8.72486 5.48508 9.16255 5.40496 9.51773L4.60378 12.8606L3.56841 8.77564C3.56841 8.77564 3.48829 8.33795 3.16782 8.03348C2.66246 7.56405 1.91675 7.67825 1.91675 7.67825L3.88888 15.3217C3.88888 15.3217 4.52982 15.3788 4.85029 15.2139C5.27554 14.9918 5.49124 14.8333 5.73159 13.7866C5.97195 12.8542 6.61291 10.1394 6.66218 9.9491C6.68685 9.86664 6.74228 9.61922 6.90253 9.61922C7.06279 9.61922 7.11827 9.84123 7.14288 9.9491C7.19837 10.1394 7.83317 12.8542 8.07352 13.7866C8.33848 14.8269 8.5234 14.9918 8.95476 15.2139C9.27527 15.3788 9.91622 15.3217 9.91622 15.3217L11.876 7.67825C11.876 7.67825 11.1303 7.57044 10.625 8.03348Z" fill="#383838"/>
<path d="M13.6818 8.9082C13.6818 8.9082 13.5462 9.09847 13.2812 9.26344C13.0963 9.37125 12.9361 9.42835 12.7512 9.53616C12.4307 9.70107 12.3506 9.86598 12.3506 10.1134V15.2957C12.3506 15.2957 12.856 15.3528 13.1764 15.1878C13.6017 14.9658 13.6818 14.7502 13.6818 13.8177V8.9082Z" fill="#383838"/>
<path d="M18.5811 11.5161L21.0832 7.70395C21.0832 7.70395 20.0479 7.51363 19.5117 8.00841C19.1666 8.31288 18.8215 8.88374 18.8215 8.88374L17.9155 10.2538C17.86 10.3363 17.8107 10.3934 17.7306 10.3934C17.6505 10.3934 17.5704 10.3109 17.5457 10.2538L16.6398 8.88374C16.6398 8.88374 16.27 8.33823 15.9495 8.00841C15.4196 7.51363 14.378 7.70395 14.378 7.70395L16.8 11.5098L14.3225 15.3156C14.3225 15.3156 15.4133 15.4552 15.9495 14.9604C16.2946 14.6559 16.6151 14.1358 16.6151 14.1358L17.5211 12.7657C17.5765 12.6833 17.6259 12.6262 17.706 12.6262C17.7861 12.6262 17.8662 12.7086 17.8908 12.7657L18.7968 14.1358C18.7968 14.1358 19.1419 14.6559 19.4624 14.9604C19.9924 15.4552 21.0586 15.3156 21.0586 15.3156L18.5811 11.5161Z" fill="#383838"/>
</svg>
