<svg width="100" height="20" viewBox="0 0 100 20" fill="none" xmlns="http://www.w3.org/2000/svg">
<path fill-rule="evenodd" clip-rule="evenodd" d="M30.4673 0H3.11834C1.38756 0 -0.0135374 1.41483 9.86973e-05 3.13187V13.5714C9.86973e-05 15.3022 1.4013 16.7033 3.13207 16.7033H16.0854L22.0058 20L20.6596 16.7033H30.4673C32.1981 16.7033 33.5991 15.3022 33.5991 13.5714V3.13187C33.5991 1.4011 32.1981 0 30.4673 0ZM2.54147 2.41758C2.15685 2.44506 1.86839 2.58242 1.67608 2.8434C1.48378 3.09066 1.4151 3.40659 1.4563 3.76374C2.26674 8.91488 3.02224 12.3901 3.72279 14.1896C3.99752 14.8489 4.31345 15.1649 4.68433 15.1374C5.26125 15.0962 5.94806 14.2995 6.75851 12.7473C7.18433 11.8681 7.84368 10.5495 8.73654 8.7912C9.47826 11.3873 10.4947 13.338 11.7723 14.6429C12.1294 15.0137 12.5003 15.1786 12.8574 15.1511C13.1734 15.1236 13.4206 14.9588 13.5854 14.6566C13.7228 14.3956 13.7777 14.0934 13.7503 13.75C13.6678 12.5 13.7915 10.7555 14.1349 8.51649C14.492 6.2088 14.9316 4.5467 15.4673 3.55769C15.5772 3.35165 15.6184 3.1456 15.6047 2.89835C15.5772 2.58241 15.4398 2.32143 15.1789 2.11538C14.9179 1.90934 14.6294 1.81319 14.3135 1.84066C13.9151 1.86813 13.6129 2.06044 13.4069 2.44506C12.5552 3.99725 11.9508 6.51099 11.5937 10C11.0717 8.68133 10.6321 7.12912 10.2887 5.3022C10.1376 4.49176 9.76678 4.10714 9.16234 4.14835C8.75026 4.17582 8.40687 4.45055 8.13214 4.97253L5.12389 10.7006C4.62938 8.70879 4.16235 6.27748 3.73653 3.40659C3.64037 2.69231 3.24202 2.36263 2.54147 2.41758ZM29.0113 3.40663C29.9866 3.61269 30.7146 4.13466 31.2091 5.00004C31.6487 5.74181 31.8684 6.63467 31.8684 7.70609C31.8684 9.1209 31.5113 10.4121 30.797 11.5934C29.9728 12.9671 28.9014 13.6539 27.569 13.6539C27.3355 13.6539 27.0882 13.6264 26.8272 13.5714C25.8519 13.3654 25.1239 12.8435 24.6294 11.9781C24.1899 11.2226 23.9701 10.316 23.9701 9.25827C23.9701 7.84346 24.3272 6.55224 25.0415 5.38466C25.8794 4.01103 26.9508 3.32422 28.2695 3.32422C28.503 3.32422 28.7503 3.35169 29.0113 3.40663ZM28.4344 10.8379C28.9426 10.3846 29.286 9.71156 29.4783 8.80498C29.5333 8.48906 29.5745 8.14565 29.5745 7.78851C29.5745 7.39016 29.492 6.96434 29.3272 6.5385C29.1212 6.00279 28.8464 5.71433 28.5167 5.64565C28.0223 5.54949 27.5415 5.82422 27.0882 6.4973C26.7174 7.01928 26.4838 7.56873 26.3602 8.13191C26.2915 8.44785 26.264 8.79129 26.264 9.13468C26.264 9.53302 26.3464 9.95883 26.5113 10.3846C26.7174 10.9204 26.992 11.2088 27.3217 11.2775C27.6651 11.3462 28.036 11.1951 28.4344 10.8379ZM22.5964 5.00004C22.1019 4.13466 21.3601 3.61269 20.3986 3.40663C20.1376 3.35169 19.8904 3.32422 19.6568 3.32422C18.3382 3.32422 17.2668 4.01103 16.4288 5.38466C15.7145 6.55224 15.3574 7.84346 15.3574 9.25827C15.3574 10.316 15.5772 11.2226 16.0167 11.9781C16.5113 12.8435 17.2393 13.3654 18.2145 13.5714C18.4755 13.6264 18.7227 13.6539 18.9563 13.6539C20.2887 13.6539 21.3601 12.9671 22.1843 11.5934C22.8986 10.4121 23.2557 9.1209 23.2557 7.70609C23.2557 6.63467 23.0359 5.74181 22.5964 5.00004ZM20.8656 8.80498C20.6734 9.71156 20.3299 10.3846 19.8216 10.8379C19.4233 11.1951 19.0524 11.3462 18.7091 11.2775C18.3794 11.2088 18.1046 10.9204 17.8986 10.3846C17.7337 9.95883 17.6513 9.53302 17.6513 9.13468C17.6513 8.79129 17.6788 8.44785 17.7475 8.13191C17.8711 7.56873 18.1046 7.01928 18.4755 6.4973C18.9289 5.82422 19.4096 5.54949 19.9041 5.64565C20.2338 5.71433 20.5085 6.00279 20.7145 6.5385C20.8794 6.96434 20.9618 7.39016 20.9618 7.78851C20.9618 8.14565 20.9343 8.48906 20.8656 8.80498Z" fill="#7F54B3"/>
<path fill-rule="evenodd" clip-rule="evenodd" d="M37.0743 4.87748C36.154 5.78407 35.7007 6.93792 35.7007 8.33902C35.7007 9.83629 36.154 11.0588 37.0606 11.9791C37.9672 12.8995 39.1485 13.3665 40.6183 13.3665C41.0441 13.3665 41.5249 13.2978 42.0469 13.1467V10.9214C41.5661 11.0588 41.154 11.1275 40.7968 11.1275C40.0688 11.1275 39.4919 10.8802 39.0523 10.3995C38.6128 9.90493 38.393 9.24562 38.393 8.4077C38.393 7.62473 38.6128 6.97913 39.0386 6.48462C39.4781 5.97638 40.0139 5.72913 40.6733 5.72913C41.0991 5.72913 41.5524 5.7978 42.0469 5.93517V3.70989C41.5936 3.58626 41.0854 3.53132 40.5496 3.53132C39.1485 3.51758 37.9947 3.97088 37.0743 4.87748ZM46.6073 3.51758C45.3436 3.51758 44.3546 3.94341 43.6403 4.78132C42.926 5.61923 42.5826 6.80056 42.5826 8.31154C42.5826 9.94618 42.9397 11.1962 43.6403 12.0616C44.3408 12.927 45.3711 13.3665 46.7172 13.3665C48.0222 13.3665 49.0249 12.927 49.7254 12.0616C50.426 11.1962 50.7832 9.97366 50.7832 8.4077C50.7832 6.84176 50.426 5.63297 49.7117 4.78132C48.9837 3.94341 47.9534 3.51758 46.6073 3.51758ZM47.6925 10.6604C47.4452 11.0451 47.0743 11.2374 46.6073 11.2374C46.1678 11.2374 45.8381 11.0451 45.6046 10.6604C45.3711 10.2758 45.2612 9.50659 45.2612 8.33902C45.2612 6.53957 45.7145 5.6467 46.6348 5.6467C47.5963 5.6467 48.0908 6.5533 48.0908 8.38023C48.0771 9.50659 47.9397 10.2758 47.6925 10.6604ZM57.5689 3.77857L57.0743 5.88023C56.9507 6.41594 56.8271 6.96539 56.7172 7.52858L56.4425 8.98466C56.1815 7.52858 55.8244 5.7978 55.3711 3.77857H52.1843L50.9892 13.133H53.3793L54.0249 6.69066L55.6595 13.133H57.3629L58.9287 6.7044L59.6018 13.133H62.1018L60.8381 3.77857H57.5689ZM69.0112 3.77857L68.5167 5.88023C68.393 6.41594 68.2694 6.96539 68.1595 7.52858L67.8848 8.98466C67.6238 7.52858 67.2667 5.7978 66.8134 3.77857H63.6266L62.4315 13.133H64.8216L65.4672 6.69066L67.1018 13.133H68.8051L70.3573 6.7044L71.0304 13.133H73.5304L72.2667 3.77857H69.0112ZM76.7859 9.43795H79.0249V7.5011H76.7859V5.78407H79.3683V3.79231H74.2585V13.1467H79.3821V11.155H76.7859V9.43795ZM86.4975 7.9544C86.7585 7.52858 86.8958 7.08902 86.8958 6.63572C86.8958 5.7566 86.5524 5.05605 85.8656 4.5478C85.1788 4.03956 84.231 3.77857 83.0497 3.77857H80.1101V13.133H82.6376V8.87476H82.6788L84.7255 13.133H87.3903L85.3711 8.91593C85.8518 8.69616 86.2365 8.38022 86.4975 7.9544ZM82.6239 7.8033V5.57802C83.2282 5.59176 83.654 5.68791 83.9151 5.88023C84.1761 6.07253 84.2997 6.37473 84.2997 6.81429C84.2997 7.45989 83.7365 7.78957 82.6239 7.8033ZM88.379 4.87748C87.459 5.78407 87.0057 6.93792 87.0057 8.33902C87.0057 9.83629 87.459 11.0588 88.3658 11.9791C89.2726 12.8995 90.4532 13.3665 91.9235 13.3665C92.3492 13.3665 92.8302 13.2978 93.3516 13.1467V10.9214C92.8715 11.0588 92.4589 11.1275 92.1017 11.1275C91.374 11.1275 90.7973 10.8802 90.3575 10.3995C89.9177 9.90493 89.6983 9.24562 89.6983 8.4077C89.6983 7.62473 89.9177 6.97913 90.3435 6.48462C90.7832 5.97638 91.3187 5.72913 91.9779 5.72913C92.4036 5.72913 92.8574 5.7978 93.3516 5.93517V3.70989C92.8987 3.58626 92.3905 3.53132 91.855 3.53132C90.4672 3.51758 89.2998 3.97088 88.379 4.87748ZM96.5801 11.1275V9.42417H98.8185V7.48737H96.5801V5.77034H99.1758V3.77857H94.0662V13.133H99.1898V11.1412H96.5801V11.1275Z" fill="black"/>
</svg>
