<svg width="46" height="12" viewBox="0 0 46 12" fill="none" xmlns="http://www.w3.org/2000/svg">
<g clip-path="url(#clip0_11943_5509)">
<path fill-rule="evenodd" clip-rule="evenodd" d="M19.3922 0C18.3148 0 17.6133 0.353684 16.9869 1.54105L14.1307 6.97263V2.14737C14.1307 0.707368 13.4542 0 12.2015 0C10.9488 0 10.4227 0.429474 9.7963 1.64211L7.09041 6.97263V2.19789C7.09041 0.656842 6.46405 0 4.93573 0H1.82898C0.651416 0 0 0.555789 0 1.56632C0 2.57684 0.626362 3.18316 1.77887 3.18316H3.05664V9.27158C3.05664 10.9895 4.20915 12 5.86274 12C7.51634 12 8.26797 11.3432 9.09477 9.8021L10.8987 6.39158V9.27158C10.8987 10.9642 12.0011 12 13.6797 12C15.3584 12 15.9847 11.4189 16.9368 9.8021L21.0959 2.72842C21.9978 1.18737 21.3715 0 19.3671 0C19.3671 0 19.3671 0 19.3922 0Z" fill="#873EFF"/>
<path fill-rule="evenodd" clip-rule="evenodd" d="M27.2092 0C23.8018 0 21.2212 2.55158 21.2212 6.01263C21.2212 9.47368 23.8269 12 27.2092 12C30.5916 12 33.1722 9.44842 33.1972 6.01263C33.1972 2.55158 30.5916 0 27.2092 0ZM27.2092 8.31158C25.9314 8.31158 25.0545 7.35158 25.0545 6.01263C25.0545 4.67368 25.9314 3.68842 27.2092 3.68842C28.487 3.68842 29.3639 4.67368 29.3639 6.01263C29.3639 7.35158 28.512 8.31158 27.2092 8.31158Z" fill="#873EFF"/>
<path fill-rule="evenodd" clip-rule="evenodd" d="M40.0119 0C36.6296 0 34.0239 2.55158 34.0239 6.01263C34.0239 9.47368 36.6296 12 40.0119 12C43.3943 12 46 9.44842 46 6.01263C46 2.57684 43.3943 0 40.0119 0ZM40.0119 8.31158C38.7091 8.31158 37.8823 7.35158 37.8823 6.01263C37.8823 4.67368 38.7342 3.68842 40.0119 3.68842C41.2897 3.68842 42.1666 4.67368 42.1666 6.01263C42.1666 7.35158 41.3148 8.31158 40.0119 8.31158Z" fill="#873EFF"/>
</g>
<defs>
<clipPath id="clip0_11943_5509">
<rect width="46" height="12" fill="white"/>
</clipPath>
</defs>
</svg>
