<svg width="16" height="16" viewBox="0 0 16 16" xmlns="http://www.w3.org/2000/svg"><g clip-path="url(#clip0_9_971)"><path fill-rule="evenodd" clip-rule="evenodd" d="M6.39075 10.0689V5.5794C7.98452 6.32935 9.21887 7.05381 10.6788 7.83487C9.47467 8.50264 7.98452 9.2519 6.39075 10.0689ZM15.2728 3.34659C14.9979 2.98438 14.5293 2.70243 14.0305 2.60909C12.5642 2.33065 3.41679 2.32986 1.95132 2.60909C1.55129 2.68408 1.19507 2.86535 0.889066 3.14698C-0.40029 4.3437 0.00373294 10.7613 0.314518 11.8009C0.445206 12.2509 0.614152 12.5754 0.82692 12.7884C1.10105 13.07 1.47637 13.2639 1.90749 13.3509C3.11476 13.6006 9.33443 13.7402 14.005 13.3884C14.4353 13.3134 14.8162 13.1132 15.1166 12.8196C16.3087 11.6277 16.2275 4.84967 15.2728 3.34659Z" class="fill-gray-alpha-950"></path></g><defs><clipPath id="clip0_9_971"><rect width="16" height="16" class="fill-background"></rect></clipPath></defs></svg>